<?xml version="1.0" standalone="no"?>
<!DOCTYPE svg PUBLIC "-//W3C//DTD SVG 1.1//EN" "http://www.w3.org/Graphics/SVG/1.1/DTD/svg11.dtd" >
<svg xmlns="http://www.w3.org/2000/svg">
<metadata>
This is a custom SVG font generated by IcoMoon.
<iconset grid="16"></iconset>
</metadata>
<defs>
<font id="MediaCommons-Icon-Font" horiz-adv-x="512" >
<font-face units-per-em="512" ascent="480" descent="-32" />
<missing-glyph horiz-adv-x="512" />
<glyph class="hidden" unicode="&#xf000;" d="M0,480L 512 -32L0 -32 z" horiz-adv-x="0" />
<glyph unicode="&#xe005;" d="M 352.032,415.968L 160,416L 255.968,256 zM 160,32L 352.032,32L 256.064,192 z" data-tags="triangles-collapse" />
<glyph unicode="&#xe007;" d="M 176,320L 176,128L 336,224 z" data-tags="triangle-small-4" />
<glyph unicode="&#xe009;" d="M 336,128L 336,320L 176,224 z" data-tags="triangle-small-3" />
<glyph unicode="&#xe00a;" d="M 160,144L 352.032,144L 256.064,304 z" data-tags="triangle-small-2" />
<glyph unicode="&#xe00b;" d="M 352.032,304L 160,304L 255.968,144 z" data-tags="triangle-small-1" />
<glyph unicode="&#xe00c;" d="M 208,160L 208,288L 304,224 z" data-tags="triangle-mini-4" />
<glyph unicode="&#xe00d;" d="M 304,288L 304,160L 208,224 z" data-tags="triangle-mini-3" />
<glyph unicode="&#xe00e;" d="M 320,176L 192,176L 256,272 z" data-tags="triangle-mini-2" />
<glyph unicode="&#xe00f;" d="M 192,272L 320,272L 256,176 z" data-tags="triangle-mini-1" />
<glyph unicode="&#xe010;" d="M 128,64L 128,384L 384,224 z" data-tags="triangle-big-4" />
<glyph unicode="&#xe011;" d="M 384,384L 384,64L 128,224 z" data-tags="triangle-big-3" />
<glyph unicode="&#xe012;" d="M 416,96L 96,96L 256,352 z" data-tags="triangle-big-2" />
<glyph unicode="&#xe013;" d="M 96,352L 416,352L 256,96 z" data-tags="triangle-big-1" />
<glyph unicode="&#xe014;" d="M 192,256A64,64 180 1 1 320,256A64,64 180 1 1 192,256zM 320,160c-32,0-96,0-128,0c-64,0,0-192, 32-192s0,0, 64,0C 320-32, 384,160, 320,160zM 256,480C 132.352,480, 32,379.68, 32,256c0-80.768, 42.944-151.36, 107.072-190.784c-3.488,16.224-5.568,31.264-6.144,43.616
		C 90.848,144.096, 64,196.96, 64,256c0,105.888, 86.112,192, 192,192s 192-86.112, 192-192c0-59.040-26.848-111.904-68.896-147.168c-0.608-12.384-2.656-27.392-6.144-43.616
		C 437.056,104.64, 480,175.232, 480,256C 480,379.68, 379.648,480, 256,480zM 256,396C 178.72,396, 116,333.312, 116,256c0-33.088, 11.968-63.104, 31.2-87.072
		c 6.592,9.056, 15.232,15.648, 25.376,19.328C 157.44,206.848, 148,230.208, 148,256c0,59.552, 48.448,108, 108,108S 364,315.552, 364,256
		c0-25.792-9.44-49.152-24.576-67.744c 10.144-3.648, 18.784-10.24, 25.376-19.328C 384.032,192.896, 396,222.912, 396,256
		C 396,333.312, 333.28,396, 256,396z" data-tags="share-podcast" />
<glyph unicode="&#xe015;" d="M 416,480L 96,480 C 43.2,480,0,436.8,0,384l0-320 c0-52.8, 43.2-96, 96-96l 320,0 c 52.8,0, 96,43.2, 96,96L 512,384 C 512,436.8, 468.8,480, 416,480z
	 M 143.264,64.064c-25.984,0-47.136,21.024-47.136,47.072c0,25.984, 21.12,47.264, 47.136,47.264c 26.048,0, 47.2-21.28, 47.2-47.264
	C 190.432,85.088, 169.312,64.064, 143.264,64.064z M 265.216,64c-0.8,32-19.936,87.008-51.136,118.272C 182.848,213.6, 128,232.512, 96,233.312L 96,295.168 
	C 224,293.472, 325.568,192, 327.264,64L 265.216,64 z M 386.048,64C 384.384,224, 256,352.48, 96,354.176L 96,416 c 192-1.728, 350.304-160, 352-352L 386.048,64 z" data-tags="rss" />
<glyph unicode="&#xe016;" d="M 8,21.248l 45.248-45.248c 6.24-6.24, 16.448-6.24, 22.624,0l 88.16,88.128c 34.848-22.304, 76.16-35.424, 120.672-35.424
			c 123.68,0, 224,100.256, 224,224c0,123.712-100.32,224-224,224c-123.744,0-224-100.288-224-224c0-44.512, 13.12-85.824, 35.424-120.672L 8,43.872
			C 1.76,37.664, 1.76,27.456, 8,21.248z M 124.672,252.672c0,88.224, 71.744,160, 160,160c 88.192,0, 160-71.776, 160-160c0-88.256-71.808-160-160-160
			C 196.448,92.672, 124.672,164.448, 124.672,252.672z" data-tags="options-search" />
<glyph unicode="&#xe017;" d="M 268.928,189.024c0-8.032-1.344-9.344-9.344-9.344L 227.040,179.68 c-8,0-9.344,1.312-9.344,9.344L 217.696,244.736 
		c0,10.72, 16.032,12.512, 31.648,17.856c 16.032,5.792, 31.648,14.72, 31.648,38.784c0,20.512-12.928,31.648-37.024,31.648
		c-27.616,0-51.264-14.72-55.712-14.72c-2.24,0-4.448,2.208-4.896,4.48L 171.744,353.088C 170.848,354.88, 170.848,356.224, 170.848,358.016
		c0,11.584, 53.056,26.272, 82.912,26.272c 53.984,0, 87.392-34.752, 87.392-83.328c0-57.504-45.984-72.672-72.256-81.6L 268.928,189.024L 268.928,189.024z
		 M 244.864,63.744c-21.408,0-37.92,17.408-37.92,37.472c0,21.408, 16.512,37.92, 37.92,37.92c 20.96,0, 37.376-16.928, 37.376-37.92
		C 282.304,81.152, 265.376,63.744, 244.864,63.744zM 256,470.144C 120.032,470.144, 9.824,359.968, 9.824,224S 120.032-22.112, 256-22.112c 135.936,0, 246.176,110.144, 246.176,246.112
		S 391.936,470.144, 256,470.144z M 256,13.824c-115.904,0-210.176,94.272-210.176,210.144c0,115.904, 94.304,210.176, 210.176,210.176s 210.176-94.272, 210.176-210.176
		C 466.176,108.096, 371.872,13.824, 256,13.824z" data-tags="infos-question-circle" />
<glyph unicode="&#xe018;" d="M 429.376,397.376c-95.744,95.68-251.008,95.68-346.72,0c-95.776-95.712-95.776-250.976,0-346.72
	c 95.744-95.744, 251.008-95.712, 346.72,0C 525.12,146.336, 525.12,301.664, 429.376,397.376z M 245.696,26.784c-26.656,0-48.384,21.504-48.384,47.904
	c0,27.136, 21.248,48.384, 48.384,48.384c 26.432,0, 47.936-21.696, 47.936-48.384C 293.632,48.704, 271.68,26.784, 245.696,26.784z M 279.36,194.816l0-26.56 
	c0-12.928-5.056-17.984-17.984-17.984L 226.688,150.272 c-12.928,0-17.984,5.056-17.984,17.984L 208.704,227.648 c0,14.976, 15.392,19.456, 28.96,23.424
	c 3.296,0.96, 6.72,1.984, 10.016,3.104C 265.312,260.512, 276.192,268.384, 276.192,288c0,6.368,0,25.728-31.424,25.728c-19.392,0-37.024-7.424-47.552-11.904
	c-5.888-2.496-8.864-3.744-11.84-3.744c-6.048,0-11.808,4.896-12.704,9.92L 160.64,339.52C 158.848,343.104, 158.848,345.984, 158.848,348.32
	c0,23.264, 72.384,36.032, 96.384,36.032c 60.48,0, 101.088-38.912, 101.088-96.832C 356.32,224.832, 309.248,205.184, 279.36,194.816z" data-tags="infos-question-circle-2" />
<glyph unicode="&#xe019;" d="M 429.376,397.408c-95.744,95.68-251.008,95.68-346.72,0c-95.776-95.712-95.776-251.008,0-346.752
	c 95.744-95.744, 251.008-95.712, 346.72,0C 525.12,146.336, 525.12,301.696, 429.376,397.408z M 252.032,426.816c 25.888,0, 46.944-21.056, 46.944-46.976
	c0-26.112-21.056-47.392-46.944-47.392c-26.144,0-47.424,21.28-47.424,47.392C 204.64,406.176, 225.44,426.816, 252.032,426.816z M 327.488,81.504
	c0-9.888-4.768-14.656-14.624-14.656L 191.712,66.848 c-9.856,0-14.656,4.768-14.656,14.656l0,30.88 c0,9.888, 4.8,14.656, 14.656,14.656l 22.4,0 L 214.112,257.344 L 191.232,257.344 
	c-9.856,0-14.656,4.768-14.656,14.656L 176.576,302.88 c0,9.888, 4.768,14.656, 14.656,14.656l 84.576,0 c 9.856,0, 14.624-4.768, 14.624-14.656l0-175.84 l 22.432,0 
	c 9.856,0, 14.624-4.768, 14.624-14.656L 327.488,81.504 z" data-tags="infos-circle-2" />
<glyph unicode="&#xe01a;" d="M 496.128,35.936L 271.872,428.384c-8.736,15.296-23.008,15.296-31.744,0L 15.872,35.936
	C 7.136,20.672, 14.4,8.16, 32,8.16l 448,0 C 497.568,8.16, 504.864,20.672, 496.128,35.936z M 288,88.16c0-8.8-7.2-16-16-16l-32,0 
	c-8.8,0-16,7.2-16,16l0,32 c0,8.8, 7.2,16, 16,16l 32,0 c 8.8,0, 16-7.2, 16-16L 288,88.16 z M 288,184.16c0-8.8-7.2-16-16-16
	l-32,0 c-8.8,0-16,7.2-16,16l0,96 c0,8.8, 7.2,16, 16,16l 32,0 c 8.8,0, 16-7.2, 16-16L 288,184.16 z" data-tags="infos-alert-triangle" />
<glyph unicode="&#xe01b;" d="M 503.776,235.328l-236.48,236.416c-6.208,6.208-16.416,6.208-22.624,0L 8.256,235.328
	c-6.208-6.208-6.208-16.416,0-22.624l 236.448-236.48c 6.208-6.208, 16.416-6.208, 22.624,0l 236.48,236.48C 509.984,218.944, 509.984,229.12, 503.776,235.328z
	 M 284.928,108.928c0-8.8-7.232-16-16-16l-32,0 c-8.8,0-16,7.2-16,16l0,32 c0,8.8, 7.2,16, 16,16l 32,0 c 8.768,0, 16-7.2, 16-16
	L 284.928,108.928 z M 284.928,204.928c0-8.8-7.232-16-16-16l-32,0 c-8.8,0-16,7.2-16,16l0,128 c0,8.8, 7.2,16, 16,16l 32,0 
	c 8.768,0, 16-7.2, 16-16L 284.928,204.928 z" data-tags="infos-alert-losange" />
<glyph unicode="&#xe01c;" d="M 429.376,397.376c-95.744,95.68-251.008,95.68-346.72,0c-95.776-95.712-95.776-250.976,0-346.72
	c 95.744-95.744, 251.008-95.712, 346.72,0C 525.12,146.336, 525.12,301.664, 429.376,397.376z M 238.656,384.352l 50.816,0 c 15.264,0, 17.504-8.864, 17.504-14.176
	c0-2.144,0-2.144-0.128-4.64L 306.496,360.224L 296.032,174.080c-1.472-13.984-7.648-16.672-17.92-16.672L 251.040,157.408 c-10.24,0-16.48,2.72-17.984,17.056
	L 222.624,360.192l-0.32,5.344C 222.112,368.032, 222.112,368.032, 222.112,370.176C 222.112,375.488, 224.288,384.352, 238.656,384.352z M 264.8,26.784
	c-26.656,0-48.384,21.504-48.384,47.904c0,27.136, 21.248,48.384, 48.384,48.384c 26.432,0, 47.936-21.696, 47.936-48.384
	C 312.704,48.704, 290.752,26.784, 264.8,26.784z" data-tags="infos-alert-circle-2" />
<glyph unicode="&#xe000;" d="M 1917.248,116.416 m0,0,c-18.816-14.336-42.496-21.44-71.104-21.44-20.128,0-37.504,3.328-52.288,9.696-14.848,6.496-27.2,15.68-37.248,27.36-10.176,11.616-17.632,25.6-22.688,41.824-5.024,16.288-7.872,33.952-8.512,53.056 0,19.2 2.976,36.704 8.736,52.64 5.888,15.872 14.016,29.728 24.64,41.376 10.528,11.648 22.976,20.768 37.408,27.296 14.464,6.464 30.24,9.728 47.488,9.728 22.336,0 40.928-4.64 55.776-13.856 14.72-9.344 26.528-21.024 35.488-35.328 8.928-14.24 15.072-29.856 18.56-46.72 3.424-16.928 4.736-32.96 4.128-48.256l-188.352,0 c-0.384-11.008 0.896-21.472 3.808-31.424 2.976-9.888 7.648-18.56 14.176-26.176 6.528-7.68 14.688-13.824 24.864-18.272 9.952-4.576 21.888-6.88 35.456-6.88 17.536,0 31.936,4.128 43.136,12.224 11.168,8.16 18.592,20.416 22.080,37.024l 40.928,0 c-5.312-28.352-17.504-49.568-36.32-63.872l-0.16,0 zm-9.952,161.6c-3.712,8.736-8.736,16.256-15.072,22.592-6.368,6.336-13.824,11.36-22.432,15.104-8.608,3.712-18.144,5.664-28.48,5.664-10.752,0-20.384-1.952-29.056-5.664-8.544-3.744-15.872-8.8-22.112-15.328-6.144-6.528-10.976-14.016-14.56-22.624-3.648-8.64-5.696-17.824-6.304-27.52l 144.608,0 c-0.672,9.632-2.848,18.88-6.688,27.616l 0.096,0.16zM 2062.272,100.256 m0,0,l-93.44,251.776l 46.176,0 l 70.656-209.824l 0.992,0 l 68.672,209.824l 43.328,0 l-92.032-251.776l-44.352,0 zM 2400.224,116.416 m0,0,c-18.816-14.336-42.464-21.44-71.040-21.44-20.128,0-37.568,3.328-52.352,9.696-14.848,6.496-27.168,15.68-37.216,27.36-10.112,11.616-17.632,25.6-22.688,41.824-5.024,16.288-7.872,33.952-8.512,53.056 0,19.2 2.912,36.704 8.832,52.64 5.792,15.872 14.016,29.728 24.512,41.376 10.592,11.648 23.104,20.768 37.6,27.296 14.368,6.464 30.176,9.728 47.36,9.728 22.432,0 41.056-4.64 55.808-13.856 14.72-9.344 26.624-21.024 35.52-35.328 8.896-14.24 15.040-29.856 18.432-46.72 3.424-16.928 4.832-32.96 4.224-48.256l-188.48,0 c-0.352-11.008 0.96-21.472 3.904-31.424 2.944-9.888 7.616-18.56 14.112-26.176 6.528-7.68 14.784-13.824 24.832-18.272 10.048-4.576 21.92-6.88 35.52-6.88 17.568,0 31.904,4.128 43.136,12.224 11.2,8.16 18.56,20.416 22.112,37.024l 40.864,0 c-5.568-28.352-17.76-49.568-36.512-63.872l 0.032,0 zm-9.984,161.6c-3.68,8.736-8.736,16.256-15.040,22.592-6.4,6.336-13.856,11.36-22.432,15.104-8.64,3.712-18.080,5.664-28.448,5.664-10.816,0-20.448-1.952-29.088-5.664-8.512-3.744-15.872-8.832-22.048-15.36-6.24-6.528-11.008-14.016-14.624-22.624-3.552-8.64-5.664-17.824-6.272-27.52l 144.512,0 c-0.704,9.632-2.816,18.88-6.624,27.616l 0.064,0.192zM 2525.792,352.032 m0,0,l0-53.056 l 1.12,0 c 9.952,20.384 22.336,35.52 36.928,45.28 14.688,9.696 33.088,14.24 55.456,13.6l0-43.776 c-16.576,0-30.624-2.336-42.336-6.816-11.712-4.544-21.056-11.264-28.352-20.032-7.040-8.704-12.256-19.328-15.456-31.904-3.328-12.48-4.832-26.784-4.832-43.104l0-111.968 l-41.44,0 l0,251.776 l 38.976,0 -0.064,0 zM 2754.432,35.968 m0,0,c-4.704-8.384-9.92-15.328-15.584-20.64-5.664-5.344-11.904-9.248-18.752-11.744-6.752-2.336-14.944-3.584-24.288-3.584-4.96,0-9.824,0.384-14.656,0.896-4.896,0.768-9.664,1.824-14.112,3.52l0,38.016 c 3.936-1.344 7.904-2.656 11.904-3.936 4.032-1.312 8.192-1.888 12.512-1.888 8.416,0 15.136,1.888 20.32,5.824 5.28,3.872 9.856,9.568 13.632,16.992l 17.248,42.4-99.936,250.176l 46.752,0 l 73.536-205.952l 0.896,0 l 70.688,205.952l 43.84,0 l-109.504-284.704c-5.088-12.32-9.952-22.72-14.752-31.136l 0.256-0.192zM 3084.8,100.256 m0,0,l0,34.080 l-0.928,0 c-6.944-13.984-17.696-24-32.224-30.176-14.56-6.112-30.72-9.248-48.192-9.248-19.552,0-36.416,3.552-51.008,10.688-14.304,7.2-26.336,16.768-36,28.736-9.6,11.968-16.704,25.92-21.6,41.92-4.832,15.872-7.328,32.704-7.328,50.592 0,17.92 2.336,34.752 7.072,50.72 4.704,15.808 11.84,29.728 21.44,41.632 9.568,11.808 21.504,21.248 36.128,28.224 14.272,6.976 31.168,10.432 50.336,10.432 6.368,0 13.376-0.64 20.832-1.952 7.584-1.312 15.072-3.488 22.496-6.592 7.424-3.072 14.496-7.168 21.152-12.192 6.592-5.056 12.224-11.232 16.864-18.688l 0.96,0 l0,129.568 l 41.28,0 l0-347.712 l-41.28-0.032zm-148.704,89.472c 3.072-11.232 7.776-21.216 14.016-29.984 6.432-8.736 14.496-15.776 24.448-20.96 9.824-5.184 21.536-7.68 34.72-7.68 13.984,0 25.856,2.72 35.456,8.16 9.92,5.6 17.792,12.736 23.968,21.728 6.144,8.928 10.56,19.040 13.472,30.4 2.688,11.36 4.096,22.944 4.096,34.592 0,12.32-1.44,24.256-4.384,35.84-2.848,11.424-7.52,21.664-13.792,30.4-6.464,8.736-14.688,15.808-24.672,21.12-10.080,5.408-22.144,8.064-36.48,8.064-13.92,0-25.824-2.72-35.456-8.288-9.728-5.536-17.504-12.8-23.424-21.92-5.824-9.152-10.112-19.456-12.704-31.104-2.464-11.776-3.936-23.776-3.936-36.096 0-11.552 1.664-23.104 4.736-34.272l-0.064,0 zM 3373.44,94.944 m0,0,c-10.784,0-19.232,3.008-25.664,9.088-6.272,5.888-9.408,15.776-9.408,29.376-11.328-13.6-24.512-23.488-39.712-29.376-14.976-6.080-31.424-9.088-48.928-9.088-11.36,0-22.016,1.248-32.032,3.584-10.080,2.496-19.072,6.528-26.592,12.224-7.552,5.664-13.664,13.024-18.016,21.952s-6.56,19.68-6.56,32.32c0,14.336 2.336,25.984 7.168,35.136 5.056,9.056 11.328,16.448 19.456,22.144 7.904,5.664 16.864,9.984 27.2,12.896 10.144,2.912 20.64,5.408 31.424,7.296 11.36,2.304 22.048,4.032 32.416,5.152 10.112,1.12 19.232,2.688 26.88,4.832 7.808,2.144 13.984,5.088 18.624,9.248 4.512,4.096 6.72,9.984 6.72,17.824 0,9.056-1.696,16.416-5.184,21.888-3.296,5.504-7.616,9.728-12.928,12.704-5.504,2.88-11.36,4.832-18.144,5.888-6.624,0.928-13.152,1.376-19.712,1.376-17.504,0-32-3.296-43.776-10.016-11.712-6.656-17.984-19.168-18.912-37.696l-41.28,0 c 0.576,15.552 3.936,28.704 9.76,39.424 5.952,10.688 13.568,19.392 23.392,26.048 9.728,6.688 20.96,11.392 33.472,14.336 12.864,2.912 26.080,4.384 40.096,4.384 11.328,0 22.688-0.832 33.76-2.4 11.264-1.696 21.376-4.992 30.464-10.016 8.992-5.024 16.352-12.096 21.952-21.184 5.408-9.056 8.32-20.896 8.32-35.52l0-129.536 c0-9.824 0.48-16.896 1.728-21.44 1.024-4.48 4.864-6.848 11.392-6.848 3.488,0 7.808,0.8 12.672,2.496l0-32.192 c-7.328-4.192-17.056-6.368-29.792-6.368l-0.64,0.064zm-57.92,126.88c-8.416-1.76-17.152-3.232-26.432-4.384-9.408-1.12-18.688-2.4-27.968-3.904-9.504-1.408-17.92-3.808-25.376-7.072-7.456-3.2-13.536-7.84-18.304-13.824-4.736-6.016-7.040-14.208-7.040-24.64 0-6.752 1.344-12.608 4.064-17.248 2.88-4.672 6.464-8.512 10.848-11.36 4.384-2.976 9.6-5.12 15.424-6.432 6.016-1.28 12.16-1.888 18.336-1.888 13.568,0 25.312,1.856 35.008,5.536 9.888,3.776 17.76,8.512 23.904,14.144 6.144,5.728 10.688,11.84 13.664,18.496 3.008,6.656 4.384,12.864 4.384,18.784l0,42.336 c-5.12-4-11.872-6.848-20.512-8.608l0,0.064 zM 3513.92,35.968 m0,0,c-4.736-8.384-9.984-15.328-15.648-20.64-5.728-5.344-11.904-9.248-18.592-11.744-6.912-2.336-15.104-3.584-24.48-3.584-4.768,0-9.664,0.384-14.688,0.896-4.832,0.768-9.376,1.824-14.048,3.52l0,38.016 c 3.936-1.344 7.872-2.656 11.872-3.936 4.16-1.312 8.288-1.888 12.512-1.888 8.416,0 15.328,1.888 20.544,5.824 5.024,3.872 9.696,9.568 13.6,16.992l 17.056,42.4-99.968,250.176l 46.784,0 l 73.472-205.952l 1.184,0 l 70.528,205.952l 43.776,0 l-109.504-284.704c-5.088-12.32-9.92-22.72-14.464-31.136l0-0.192 zM 826.688,352.032 m0,0,l0-39.936 l 0.896,0 c 17.248,30.496 44.448,45.792 81.824,45.792 16.608,0 30.4-2.272 41.376-6.816 11.072-4.576 19.936-10.912 26.72-19.008 6.912-8.096 11.68-17.792 14.432-28.928 2.752-11.296 4.128-23.648 4.128-37.312l0-165.568 l-41.376,0 l0,170.4 c0,15.648-4.544,27.936-13.696,37.088-9.024,9.056-21.504,13.632-37.44,13.632-12.672,0-23.616-1.984-32.8-5.888-9.248-3.936-16.928-9.408-23.136-16.512-6.176-7.168-10.784-15.488-13.888-25.088-3.104-9.568-4.608-20.064-4.608-31.424l0-142.176 l-41.44,0 l0,251.744 l 39.008,0 l0-0.064 0,0.064 zM 1231.68,116.416 m0,0,c-18.784-14.336-42.496-21.44-71.104-21.44-20.128,0-37.6,3.328-52.32,9.696-14.816,6.496-27.104,15.68-37.216,27.36-10.080,11.616-17.632,25.6-22.656,41.824-5.024,16.288-7.776,33.952-8.512,53.056 0,19.2 2.976,36.704 8.864,52.64 5.792,15.872 14.016,29.728 24.512,41.376 10.56,11.648 23.040,20.768 37.504,27.296 14.432,6.464 30.176,9.728 47.456,9.728 22.464,0 40.928-4.64 55.776-13.856 14.784-9.344 26.624-21.024 35.552-35.328 8.864-14.24 15.104-29.856 18.496-46.72 3.392-16.928 4.768-32.96 4.128-48.256l-188.352,0 c-0.416-11.008 0.896-21.472 3.776-31.424 2.976-9.888 7.648-18.56 14.208-26.176 6.496-7.68 14.752-13.824 24.832-18.272 10.048-4.576 21.92-6.88 35.52-6.88 17.536,0 31.904,4.128 43.072,12.224 11.296,8.16 18.592,20.416 22.112,37.024l 40.928,0 c-5.568-28.352-17.76-49.568-36.608-63.872l 0.032,0 zm-9.952,161.6c-3.712,8.736-8.768,16.256-15.104,22.592s-13.792,11.36-22.464,15.104c-8.576,3.712-18.112,5.664-28.448,5.664-10.72,0-20.352-1.952-29.056-5.664-8.544-3.744-15.872-8.8-22.080-15.328-6.176-6.528-10.976-14.016-14.656-22.624-3.52-8.64-5.568-17.824-6.24-27.52l 144.608,0 c-0.768,9.632-2.848,18.88-6.688,27.616l 0.128,0.16zM 1513.152,100.256 m0,0,l-51.136,200.096l-0.928,0 l-50.688-200.096l-44.704,0 l-80.896,251.776l 45.728,0 l 57.024-205.952l 0.928,0 l 50.688,205.952l 45.28,0 l 52.512-205.952l 0.96,0 l 56.576,205.952l 42.848,0 l-80.416-251.776l-43.776,0 zM 157.632,351.52 m0,0,l0-25.76 l-51.072,0 l0-169.504 c0-10.048 1.344-17.952 4.032-23.552 2.816-5.696 9.76-8.832 20.768-9.44 8.736,0 17.504,0.512 26.272,1.408l0-25.824 c-4.512,0-9.056-0.096-13.6-0.48-4.576-0.352-9.056-0.48-13.632-0.48-20.48,0-34.72,3.968-42.848,11.904-8.096,7.968-12.032,22.688-11.744,44.096l0,171.84 l-43.808,0 l0,25.792 l 43.808,0 l0,75.488 l 30.752,0 l0-75.488 l 51.072,0 zM 232.16,448 m0,0,l0-139.776 l 0.928,0 c 5.856,15.264 16.288,27.52 31.168,36.736 14.944,9.344 31.328,13.856 49.248,13.856 17.536,0 32.16-2.208 44.032-6.784 11.808-4.608 21.344-10.944 28.416-19.168 7.232-8.288 12.224-18.496 15.136-30.496 2.976-11.936 4.384-25.472 4.384-40.384l0-161.728 l-30.656,0 l0,156.8 c0,10.688-1.056,20.736-2.912,29.952-1.952,9.248-5.408,17.312-10.24,24.096s-11.392,12.224-19.712,16.128c-8.288,3.936-18.624,5.888-31.008,5.888-12.256,0-23.232-2.176-32.832-6.56s-17.696-10.464-24.32-18.048c-6.592-7.68-11.808-16.704-15.552-27.232-3.712-10.624-5.696-22.048-6.080-34.336l0-146.656 l-30.656,0 l0,347.52 l 30.656,0 l0,0.192 zM 478.72,183.328 m0,0,c 3.072-11.872 8.064-22.464 14.88-31.84 6.752-9.472 15.424-17.248 25.792-23.392s 22.912-9.248 37.472-9.248c 22.432,0 39.968,5.888 52.64,17.536 12.64,11.68 21.408,27.232 26.24,46.688l 30.688,0 c-6.464-28.576-18.432-50.592-35.872-66.176-17.312-15.456-41.856-23.328-73.6-23.328-19.872,0-36.96,3.488-51.392,10.496-14.432,6.976-26.208,16.576-35.328,28.672-9.088,12.16-15.84,26.24-20.16,42.336-4.384,16.096-6.624,33.024-6.624,50.912 0,16.544 2.24,32.768 6.624,48.704 4.352,15.84 11.104,30.048 20.16,42.656 9.12,12.48 20.896,22.432 35.328,30.080s 31.552,11.488 51.392,11.488c 20.096,0 37.28-4.096 51.52-12.224 14.304-8.096 25.92-18.752 34.88-31.904 8.992-13.152 15.328-28.256 19.168-45.312 3.936-17.056 5.568-34.336 4.928-51.84l-193.344,0 c-0.032-11.072 1.536-22.496 4.608-34.304zm 151.84,93.824c-3.712,10.688-8.96,20.16-15.776,28.416-6.816,8.288-15.072,14.912-24.8,19.968-9.76,5.024-20.8,7.584-33.152,7.584-12.672,0-23.84-2.56-33.568-7.584-9.792-5.056-18.048-11.68-24.896-19.968-6.784-8.256-12.256-17.888-16.256-28.672-4.064-10.912-6.72-22.016-8.064-33.376l 162.592,0 c-0.256,11.712-2.24,22.912-6.080,33.632z" horiz-adv-x="3712" data-tags="the-new-everyday-logo" />
<glyph unicode="&#xe001;" d="M 1140.512,250.912 m0,0,c 9.856,1.28 16.416,5.344 19.872,12.352 1.824,3.84 2.848,9.408 2.848,16.608 0,14.656-5.248,25.312-15.712,31.968-10.304,6.56-25.184,9.952-44.672,9.952-22.304,0-38.272-6.016-47.648-18.24-5.216-6.72-8.576-16.672-10.176-29.984l-40.192,0 c 0.864,31.488 11.136,53.6 30.624,65.952 19.68,12.352 42.432,18.496 68.384,18.496 30.048,0 54.368-5.696 73.152-17.056 18.592-11.584 27.936-29.312 27.936-53.6l0-147.104 c0-4.512 0.928-8.224 2.688-10.912 1.824-2.624 5.696-4 11.584-4 1.984,0 4.096,0 6.496,0.512 2.368,0 4.896,0.384 7.616,0.864l0-31.552 c-6.656-2.112-11.808-3.168-15.264-3.68-3.488-0.576-8.256-0.672-14.368-0.672-14.752,0-25.568,5.248-32.16,15.744-3.488,5.6-5.984,13.408-7.424,23.648-8.736-11.488-21.312-21.472-37.664-29.824-16.352-8.576-34.528-12.64-54.208-12.64-23.712,0-43.104,6.976-58.176,21.408-14.944,14.4-22.528,32.384-22.528,54.048 0,23.712 7.424,42.080 22.304,54.976 14.688,12.992 34.112,21.056 58.176,24.064l 68.256,8.96l0-0.256 l 0.256-0.032zm-90.496-115.936c 9.12-7.328 19.84-10.912 32.288-10.912 15.104,0 29.76,3.488 43.84,10.464 23.936,11.776 35.776,30.624 35.776,56.96l0,34.592 c-5.248-3.296-12-6.112-20.192-8.416-8.256-2.176-16.352-3.776-24.32-4.704l-25.92-3.296c-15.52-2.048-27.328-5.344-35.168-9.856-13.216-7.424-19.968-19.36-19.968-35.552 0-12.64 4.608-22.272 13.632-29.632l0,0.352 l 0.032,0 zM 924.192,446.784 m0,0,l 43.744,0 l0-48.576 l-43.744,0 l0,48.576 zm0-96.032l 43.744,0 l0-254.4 l-43.744,0 l0,254.4 zM 822.208,344 m0,0,c 7.552-4.8 16.224-13.12 25.856-25.152l0,129.152 l 41.344,0 l0-351.872 l-38.72,0 l0,35.648 c-9.952-15.744-21.76-27.072-35.424-34.080-13.568-7.072-29.184-10.496-46.816-10.496-28.384,0-52.928,11.904-73.728,35.936-20.768,23.84-31.072,55.68-31.072,95.392 0,37.312 9.408,69.568 28.384,96.8 18.848,27.328 45.984,40.896 81.216,40.896 19.456,0.224 35.808-3.936 48.96-12.224zm-96-191.616c 11.584-18.496 30.176-27.808 55.584-27.808 19.904,0 36.064,8.672 48.832,25.696 12.8,17.088 19.2,41.632 19.2,73.632 0,32.288-6.56,56.224-19.712,71.776s-29.44,23.2-48.736,23.2c-21.44,0-38.944-8.192-52.288-24.704-13.408-16.64-20.128-40.96-20.128-73.056 0-27.36 5.792-50.208 17.28-68.544l0-0.192 l-0.032,0 zM 577.472,344.864 m0,0,c 17.024-8.544 29.888-19.456 38.688-33.024 8.544-12.896 14.208-28 17.056-45.12 2.624-11.776 3.904-30.592 3.904-56.384l-185.92,0 c 0.672-25.888 6.784-46.944 18.144-62.656 11.36-15.648 28.992-23.52 52.8-23.52 22.24,0 40.032,7.424 53.312,22.24 7.424,8.736 12.672,18.784 15.744,30.144l 42.208,0 c-1.088-9.536-4.8-19.936-11.008-31.488-6.272-11.36-13.28-20.96-21.088-28.288-12.96-12.768-28.928-21.152-48.032-25.728-10.24-2.464-21.888-3.776-34.88-3.776-31.552,0-58.464,11.392-80.32,34.56-22.080,23.232-33.024,55.584-33.024,97.376 0,41.024 11.168,74.464 33.248,100.032 22.080,25.632 51.008,38.304 86.848,38.304 17.952,0 35.424-4.288 52.384-12.672l-0.064,0 zm 15.52-100.416c-1.76,18.592-5.856,33.472-12.096,44.64-11.744,20.736-31.2,31.072-58.496,31.072-19.52,0-35.936-7.2-49.28-21.44-13.12-14.208-20.128-32.384-20.992-54.24l 140.864,0 l0-0.096 0,0.064 zM 32.096,351.872 m0,0,l 42.464,0 l0-36.288 c 10.144,12.672 19.456,21.824 27.616,27.52 14.144,9.632 30.304,14.496 48.288,14.496 20.352,0 36.736-4.992 49.152-14.944 7.040-5.792 13.408-14.176 19.104-25.344 9.536,13.728 20.768,23.84 33.696,30.4 12.864,6.592 27.328,9.984 43.328,9.984 34.4,0 57.76-12.384 70.176-37.312 6.72-13.344 10.048-31.296 10.048-53.856l0-170.144 l-44.64,0 l0,177.376 c0,17.056-4.384,28.832-12.864,35.232-8.448,6.336-18.816,9.408-31.072,9.408-16.832,0-31.424-5.568-43.52-16.864-12.256-11.36-18.336-30.176-18.336-56.64l0-148.608 l-43.584,0 l0,166.752 c0,17.344-2.176,29.984-6.336,38.016-6.496,11.872-18.592,17.824-36.48,17.824-16.256,0-30.912-6.176-44.256-18.848-13.344-12.48-19.904-35.232-19.904-68.256l0-135.456 l-42.976,0 l0,256 l 0.064-0.224l0-0.224 l 0.032,0 zM 3072.608,359.296 m0,0,c-58.72,0-92.416-39.904-92.416-79.84-1.12-26.24 10.752-41.792 23.104-63.072 13.12-22.336 29.312-40.48 28.096-61.76 0-26.176-13.664-39.808-31.168-39.808-11.296,0-16.192,6.112-20.032,16.256-4.896,14.848-14.944,24.928-29.856,24.928-1.76,0-3.392-0.224-4.864-0.512-0.8-0.128-1.696-0.384-2.56-0.864-0.096,0-0.288,0-0.448-0.096-2.464-0.896-4.704-2.144-6.656-3.776-12.16-7.456-28.224-19.68-35.36-19.68-4.928,0-7.424,3.456-7.424,9.92 0,8.672 8.736,32.512 24.96,73.632 25.472,64.192 33.696,93.504 33.696,109.728 0,17.472-12.544,34.976-35.552,34.976-59.392,0-116.672-78.624-135.488-107.328l-3.648,2.528c 11.2,27.488 29.344,69.856 29.344,83.584 0,8.736-5.664,21.216-23.808,21.216-41.696,0-75.040-25.6-93.216-43.744-13.088,30.848-43.328,43.744-70.72,43.744-33.728,0-63.68-12.48-88.64-39.872-33.984-36.896-51.232-85.024-52.224-135.712-0.64-0.288-1.184-0.736-1.504-1.6-3.68-5.056-33.824-44.96-47.424-44.96-3.744,0-6.272,3.84-7.424,8.736 0,10.080 12.384,36.224 24.928,72.416 18.656,53.664 34.176,89.152 34.176,107.296 0,14.432-11.808,33.696-34.176,33.696-57.536,0-106.144-78.592-139.872-131.040l-4.992,2.496c 10.016,22.4 32.992,76.064 32.992,99.2 0,14.976-13.12,29.312-34.304,29.312-56.128,0-111.072-83.552-137.312-127.232l-4.864,2.528c 4.864,14.88 39.872,84.832 39.872,102.176 0,13.76-8.192,22.496-26.752,22.496-45.728,0-90.56-49.888-103.072-64.896-1.312-2.496 0-3.712 1.248-6.208l 7.488-6.208c 2.496-2.528 5.056-2.528 7.424,0 5.056,7.488 37.472,37.472 44.96,37.472 5.6,0 8.224-3.744 8.224-8.704 0-9.408-17.504-48.768-31.936-87.392l-0.256,0.448-42.784-116.512c-1.856-5.12 1.216-7.552 5.024-7.552l 39.328,0 c 4.992,0 8.064,1.152 9.344,5.056l 20.608,53.664c 9.952,22.496 19.936,39.968 28.672,52.32 36.192,52.48 84.864,104.864 99.872,104.864 8.096,0 13.664-4.896 13.12-12.48 0-8.704-15.68-49.952-31.872-93.472l-39.36-103.584c-1.152-3.936 1.312-6.272 6.368-6.272l 39.232,0 c 5.056,0 8.128,1.12 9.376,4.96l 19.328,53.728c 8.672,21.056 20,37.312 23.68,43.584 38.752,58.752 88.672,114.784 103.584,114.784 8.736,0 13.088-4.896 13.088-12.416 0-9.92-7.488-31.168-26.752-79.776-23.744-59.936-37.536-98.592-37.536-112.48 0-8.704 7.52-18.688 21.344-18.688 42.56,0 82.432,40.064 101.12,62.016 8.864-41.568 40.992-62.016 72.32-62.016 37.472,0 66.208,13.92 89.952,41.216 37.312,41.312 53.568,106.144 53.568,146.080 0,4.576-0.288,8.736-0.864,12.832 11.712,11.008 30.56,27.2 40.16,27.2 5.696,0 9.376-3.744 9.376-10.048 0-8.736-15.008-47.456-28.64-87.392l-42.464-115.488c-1.248-3.52-0.672-7.904 4.928-7.904l 39.968,0 c 6.24,0 7.52,1.12 8.704,3.52l 19.936,57.44c 10.016,24.992 21.312,43.648 33.728,63.776 26.144,42.368 78.656,92.288 97.408,92.288 8.736,0 14.368-4.96 14.368-14.976 0-7.424-17.44-54.912-26.944-81.152-19.872-54.784-37.312-97.28-37.312-108.64 0-11.072 7.488-18.688 21.184-18.688 48.8,0 71.136,28.256 81.28,21.664 7.936-13.088 27.552-21.6 58.4-21.6l 0.224,0.096c 55.968,0 94.848,34.848 94.592,83.552 0,28.672-11.136,50.496-23.744,67.392-6.784,9.344-28.576,34.88-28.576,56.064 0,27.52 13.696,36.288 26.048,36.288 10.048,0 12.576-10.048 15.136-17.504 3.552-16.192 13.632-21.216 24.928-21.216 13.632,0 23.68,10.048 23.68,26.24-0.064,25.6-27.616,34.336-48.992,34.336l 0.32,0.416zm-457.856-173.984c-24.384-40.544-46.784-58.176-71.2-58.176-13.664,0-26.112,12.672-26.112,29.376 0,24.928 12.48,62.464 33.024,97.472 30.624,51.072 54.272,72.96 79.904,72.96 18.112,0 26.88-14.368 26.88-28.064 0-22.464-19.264-74.176-42.368-113.536l-0.128,0 l0-0.032 zM 2071.328,178.272 m0,0,l-8.736,5.664c-1.312,0.608-3.744,0.608-5.056-1.824-3.68-5.088-33.696-44.96-47.36-44.96-3.808,0-6.176,3.776-7.488,8.736 0,10.080 12.448,36.224 24.928,72.352 18.816,53.728 34.304,89.216 34.304,107.36 0,14.432-11.808,33.696-34.304,33.696-57.312,0-106.112-78.624-139.808-131.104l-4.96,2.592c 9.984,22.4 33.088,76 33.088,99.2 0,14.912-13.088,29.312-34.272,29.312-56.16,0-111.072-83.552-137.344-127.232l-5.088,2.496c 5.024,14.912 40.032,84.832 40.032,102.208 0,13.792-8.096,22.528-26.912,22.528-35.008,0-69.792-29.536-89.504-50.080-11.328,35.424-43.936,50.080-73.248,50.080-33.696,0-63.648-12.48-88.608-39.904-35.008-38.080-52.512-88.064-52.512-140.32l 0.224-0.192c0-57.28 38.048-85.472 74.816-85.472 37.408,0 66.048,13.824 89.824,41.152 37.408,41.344 53.664,106.24 53.664,146.144 0,0.96-0.192,1.888-0.224,2.912 7.648,9.408 36.736,35.84 43.744,35.84 5.664,0 8.096-3.744 8.096-8.704 0-9.408-17.504-48.768-31.84-87.392l-0.32,0.448-42.656-116.512c-1.984-5.12 1.184-7.552 4.96-7.552l 39.232,0 c 5.024,0 8.128,1.152 9.408,5.056l 20.576,53.664c 10.048,22.496 20,39.968 28.704,52.32 36.256,52.512 84.864,104.864 99.936,104.864 8.096,0 13.76-4.896 13.12-12.48 0-8.672-15.648-49.952-31.936-93.472l-39.2-103.584c-1.28-3.936 1.12-6.272 6.144-6.272l 39.36,0 c 4.96,0 8.096,1.12 9.344,4.96l 19.328,53.728c 8.736,21.056 19.904,37.312 23.616,43.648 38.72,58.688 88.704,114.752 103.68,114.752 8.736,0 13.12-4.896 13.12-12.448 0-9.92-7.52-31.168-26.88-79.776-23.648-59.936-37.408-98.56-37.408-112.48 0-8.704 7.424-18.688 21.216-18.688 57.376,0 109.824,72.544 112.256,76.128 1.056,4.704 1.056,6.016-1.376,8.352l 0.32,0.256zm-485.44,7.040l-0.16,0 c-24.352-40.544-46.688-58.176-70.944-58.176-13.792,0-26.24,12.672-26.24,29.376 0,24.928 12.48,62.464 33.024,97.472 30.624,51.072 54.24,72.96 79.84,72.96 18.144,0 26.912-14.368 26.912-28.064 0.096-22.464-19.264-74.176-42.336-113.536l-0.096,0 l0-0.032 zM 1429.952,153.376 m0,0,c 2.624-1.376 3.776-2.528 1.312-6.144-9.408-13.824-49.888-53.824-96.032-53.824-24.96,0-56.224,19.328-56.224,61.792 0,87.424 68.032,204.096 145.472,204.096 32.384,0 42.976-23.648 42.976-34.976 0-17.472-13.664-31.104-26.112-31.104-10.048,0-17.504,3.744-21.216,14.88-3.808,8.736-9.408,18.784-19.456,18.784-13.696,0-25.6-15.072-37.408-42.4-15.52-37.504-24.288-76.128-24.288-109.824 0-31.328 9.408-44.96 25.6-44.96 19.904,0 44.224,18.848 51.808,27.552 1.184,2.368 3.776,3.488 4.928,2.368l 8.864-6.24l0-0.128 l-0.224,0.128zM 4110.080,152.672 m0,0,c 3.936-6.304 9.184-11.424 15.456-15.072 6.4-3.84 13.408-6.528 21.664-8.16 7.936-1.568 16.192-2.368 24.576-2.368 6.56,0 13.44,0.512 20.576,1.376 7.008,0.992 13.696,2.784 19.68,5.472 6.112,2.56 10.944,6.304 14.88,11.52 3.936,4.864 6.016,11.424 6.016,19.328 0,10.624-4.256,18.816-12.192,24.448-8.256,5.376-18.304,9.984-30.56,13.28-12.256,3.456-25.536,6.56-39.808,9.376-14.432,2.72-27.552,6.656-39.808,11.68-12.224,5.056-22.368,12.16-30.592,21.248-8.224,9.216-12.256,21.888-12.256,38.176 0,12.672 2.912,23.616 8.672,32.8 5.696,9.024 12.864,16.416 21.984,22.112 8.832,5.664 19.008,10.048 30.144,12.736 11.36,2.784 22.432,4.128 33.632,4.128 14.304,0 27.552-1.12 39.424-3.552 12.192-2.528 22.752-6.752 32.064-12.736 9.344-6.048 16.736-14.144 22.176-24.448 5.696-10.272 8.736-23.168 9.888-38.432l-41.6,0 c-0.672,8.16-2.848,14.976-6.336,20.256-3.488,5.44-8.16,9.664-13.568,12.896-5.696,3.296-11.808,5.696-18.368,7.2-6.656,1.344-13.568,2.208-20.352,2.208-6.208,0-12.48-0.576-18.752-1.536-6.4-0.928-12.096-2.624-17.344-5.12-5.248-2.464-9.632-5.632-12.672-9.76-3.328-4.16-4.864-9.408-4.864-15.872 0-7.136 2.368-13.152 7.488-17.856 5.024-4.736 11.36-8.608 19.264-11.808 7.872-3.072 16.64-5.696 26.368-7.776 9.952-2.080 19.552-4.256 29.376-6.592 10.432-2.272 20.672-4.992 30.432-8.288 10.048-3.296 18.816-7.68 26.592-12.896 7.52-5.376 13.664-12.224 18.464-20.256 4.8-8.192 7.008-18.272 7.008-30.4 0-15.424-3.072-28.096-9.408-38.144-6.336-10.080-14.656-18.272-24.928-24.48-10.272-6.144-21.792-10.528-34.784-12.704-12.736-2.624-25.568-3.84-38.304-3.84-13.984,0-27.328,1.6-40,4.416-12.672,2.944-24.064,7.744-33.664,14.336-9.92,6.848-17.664,15.616-23.616,26.56-5.728,10.944-9.088,24.192-9.632,39.872l 41.536,0 c 0.288-9.28 2.304-17.056 6.336-23.552l-0.224,0 l0,0.224 zM 3872.64,152.672 m0,0,c 3.936-6.304 9.12-11.424 15.328-15.072 6.496-3.84 13.568-6.528 21.504-8.16 8.128-1.568 16.224-2.368 24.864-2.368 6.464,0 13.12,0.512 20.48,1.376 7.104,0.992 13.664,2.784 19.776,5.472 6.016,2.56 10.944,6.304 14.88,11.52 3.936,4.864 5.792,11.424 5.792,19.328 0,10.624-4.032,18.816-12.256,24.448-7.968,5.376-18.208,9.984-30.368,13.28-12.256,3.456-25.664,6.56-39.808,9.376-14.336,2.72-27.648,6.656-39.904,11.68-12.16,5.056-22.464,12.16-30.464,21.248-8.32,9.216-12.256,21.888-12.256,38.176 0,12.672 2.752,23.616 8.448,32.8 5.696,9.024 12.992,16.416 22.112,22.112 8.8,5.664 18.912,10.048 30.272,12.736 11.296,2.784 22.304,4.128 33.344,4.128 14.336,0 27.552-1.12 39.712-3.552 11.936-2.528 22.752-6.752 31.936-12.736 9.184-6.048 16.64-14.144 22.304-24.448 5.504-10.272 8.736-23.168 9.632-38.432l-41.568,0 c-0.544,8.16-2.624,14.976-6.176,20.256-3.712,5.44-8.256,9.664-13.856,12.896-5.408,3.296-11.456,5.696-18.176,7.2-6.848,1.344-13.408,2.208-20.416,2.208-6.112,0-12.256-0.576-18.816-1.536-6.176-0.928-12.064-2.624-17.248-5.12-5.12-2.464-9.44-5.632-12.704-9.76-3.328-4.16-4.928-9.408-4.928-15.872 0-7.136 2.496-13.152 7.68-17.856 4.896-4.736 11.456-8.608 19.328-11.808 7.776-3.072 16.64-5.696 26.24-7.776 9.76-2.080 19.68-4.256 29.312-6.592 10.496-2.272 20.576-4.992 30.624-8.288 9.984-3.296 18.816-7.68 26.24-12.896 7.808-5.376 14.016-12.224 18.72-20.256 4.64-8.192 7.104-18.272 7.104-30.4 0-15.424-3.168-28.096-9.632-38.144-6.24-10.080-14.56-18.272-24.928-24.48-10.144-6.144-21.888-10.528-34.56-12.704-13.024-2.624-25.824-3.84-38.496-3.84-14.016,0-27.296,1.6-40.096,4.416-12.704,2.944-23.808,7.744-33.728,14.336-9.792,6.848-17.664,15.616-23.328,26.56-6.016,10.944-9.184,24.192-9.952,39.872l 41.568,0 c 0.256-9.28 2.272-17.056 6.112-23.552l-0.128,0 l-0.32,0.224zM 3764.16,112.32 m0,0,c-18.816-14.336-42.752-21.536-71.328-21.536-20.224,0-37.696,3.328-52.512,9.856-14.848,6.432-27.424,15.552-37.504,27.328-10.144,11.84-17.6,25.824-22.752,42.016-4.896,16.32-7.872,34.144-8.416,53.376 0,19.264 2.912,36.736 8.736,52.832 5.792,15.968 14.016,29.76 24.608,41.536 10.656,11.616 23.2,20.8 37.632,27.36 14.592,6.56 30.528,9.728 47.616,9.728 22.688,0 41.184-4.672 55.936-13.888 14.88-9.376 26.688-21.216 35.872-35.424 8.8-14.4 15.072-29.984 18.368-47.008 3.488-16.864 4.8-32.96 4.32-48.224l-189.248,0 c-0.256-11.2 1.024-21.728 3.84-31.552 3.072-10.016 7.776-18.816 14.336-26.528 6.464-7.552 14.784-13.696 24.928-18.144 10.048-4.672 21.952-6.944 35.488-6.944 17.664,0 32.064,4 43.328,12.288 11.36,8.032 18.816,20.544 22.304,37.184l 41.056,0 c-5.632-28.512-17.888-49.92-36.672-64.352l0,0.096 zm-10.24,162.336c-3.552,8.8-8.736,16.416-15.072,22.752-6.368,6.336-13.824,11.36-22.56,15.104-8.576,3.712-18.016,5.664-28.448,5.664-10.944,0-20.544-1.92-29.184-5.664-8.512-3.744-15.936-8.8-22.144-15.328-6.272-6.56-11.2-14.112-14.688-22.72-3.488-8.672-5.696-17.888-6.336-27.584l 145.056,0 c-0.704,9.856-3.008,19.040-6.624,27.872l0-0.096 zM 3475.84,349.024 m0,0,l0-53.376 l 0.992,0 c 9.984,20.576 22.368,35.68 37.152,45.504 14.528,9.856 33.248,14.432 55.552,13.728l0-44 c-16.64,0-30.624-2.336-42.432-6.912-11.776-4.576-21.152-11.168-28.448-19.936-6.976-8.864-12.224-19.552-15.552-32.096-3.296-12.48-4.896-26.944-4.896-43.136l0-112.416 l-41.568,0 l0,252.64 l 39.328,0 zM 3211.52,349.024 m0,0,l0-34.304 l 0.864,0 c 7.008,14.016 17.6,24.224 32.384,30.592 14.592,6.336 30.72,9.536 48.352,9.536 19.456,0 36.576-3.648 51.008-10.816 14.496-7.040 26.688-16.864 36.32-28.96 9.632-12.192 16.704-26.432 21.76-42.304 4.864-16.064 7.2-32.896 7.2-50.848 0-17.92-2.304-34.848-7.072-50.848-4.672-15.936-11.872-29.984-21.504-41.76-9.632-11.872-21.696-21.312-36.192-28.032-14.496-7.008-31.264-10.4-50.464-10.4-6.144,0-13.088,0.768-20.832,2.080-7.52,1.312-15.328,3.392-22.752,6.208-7.52,2.976-14.528,6.912-21.12,12.128-6.688,4.864-12.32,11.296-16.96,18.816l-0.928,0 l0-130.112 l-41.6,0 l0,349.024 l 41.504,0 l 0.096,0.064l0-0.064 zm 149.12-89.696c-3.008,11.264-7.744,21.216-14.016,29.984-6.496,8.832-14.496,15.808-24.48,20.992-10.048,5.248-21.632,7.872-35.008,7.872-14.016,0-25.824-2.72-35.648-8.32-9.856-5.472-17.728-12.736-23.904-21.664-6.144-8.992-10.784-19.264-13.504-30.624-2.688-11.36-4.096-22.912-4.096-34.656 0-12.352 1.472-24.416 4.448-35.84 2.816-11.584 7.52-21.888 13.824-30.688 6.4-8.704 14.688-15.712 24.768-21.12 10.048-5.568 22.304-8.192 36.672-8.192 14.24,0 26.24,2.784 35.872,8.352 9.632,5.696 17.248,12.928 23.264,21.984 5.696,9.088 10.048,19.584 12.672,31.424 2.624,11.68 3.936,23.68 3.936,36.128-0.64,11.616-1.92,23.2-5.12,34.368l 0.128-0.128l0,0.128 z" horiz-adv-x="4320" data-tags="media-commons-press-logo" />
<glyph unicode="&#xe002;" d="M 32.032,328.576 m0,0,l 52.736,0 l0-45.056 c 12.672,15.584 24.128,26.976 34.368,34.048 17.6,12.032 37.536,18.048 59.872,18.048 25.312,0 45.632-6.208 61.024-18.656 8.672-7.136 16.608-17.568 23.68-31.424 11.904,17.088 25.792,29.664 41.792,37.824 16.064,8.224 33.984,12.32 53.952,12.32 42.688,0 71.712-15.392 87.136-46.24 8.256-16.608 12.448-38.88 12.448-66.944l0-211.264 l-55.392,0 l0,220.48 c0,21.088-5.28,35.616-15.872,43.488-10.528,7.936-23.456,11.872-38.688,11.872-20.896,0-38.944-7.008-54.016-21.024-15.2-14.016-22.752-37.344-22.752-70.176l0-184.608 l-54.24,0 l0,207.104 c0,21.504-2.592,37.248-7.68,47.136-8.096,14.784-23.232,22.176-45.344,22.176-20.16,0-38.496-7.776-54.976-23.392s-24.704-43.84-24.704-84.8l0-168.256 l-53.376,0 l 0.032,317.344zM 709.248,319.84 m0,0,c 20.992-10.592 36.992-24.288 48.032-41.088 10.56-15.968 17.664-34.688 21.216-55.968 3.136-14.624 4.672-37.92 4.672-69.92l-230.816,0 c 0.96-32.256 8.512-58.112 22.688-77.696 14.048-19.488 35.936-29.248 65.504-29.248 27.616,0 49.696,9.248 66.176,27.68 9.184,10.752 15.68,23.136 19.52,37.184l 52.48,0 c-1.376-11.616-5.952-24.64-13.824-38.944-7.776-14.24-16.512-26.048-26.080-35.136-16.096-15.808-35.968-26.496-59.648-32-12.736-3.072-27.168-4.704-43.232-4.704-39.296,0-72.576,14.432-99.808,43.136-27.328,28.672-40.896,68.928-40.896,120.736 0,50.944 13.696,92.32 41.216,124.192 27.488,31.744 63.36,47.712 107.776,47.712 22.336-0.064 44.032-5.376 65.024-15.936zm 19.136-124.608c-2.144,23.136-7.168,41.568-15.008,55.456-14.432,25.664-38.656,38.496-72.576,38.496-24.32,0-44.672-8.832-61.12-26.56-16.448-17.696-25.152-40.128-26.144-67.392l 174.848,0 zM 1012.928,318.784 m0,0,c 9.44-5.92 20.16-16.288 32.128-31.104l0,160.32 l 51.328,0 l0-436.736 l-48.032,0 l0,44.192 c-12.384-19.616-27.040-33.696-43.968-42.368s-36.32-13.088-58.144-13.088c-35.264,0-65.76,14.944-91.488,44.64-25.824,29.696-38.688,69.312-38.688,118.624 0,46.272 11.744,86.272 35.296,120.16 23.488,33.92 57.088,50.784 100.768,50.784 24.192,0 44.512-5.152 60.736-15.424l 0.064,0 zm-119.040-237.92c 14.368-22.944 37.312-34.368 68.992-34.368 24.576,0 44.704,10.688 60.544,31.872 15.84,21.248 23.744,51.616 23.744,91.36 0,40.128-8.128,69.824-24.48,89.088-16.288,19.232-36.48,28.832-60.416,28.832-26.72,0-48.416-10.272-65.024-30.816-16.64-20.576-24.864-50.784-24.864-90.656 0.064-33.92 7.2-62.368 21.504-85.312zM 1139.648,446.528 m0,0,l 54.208,0 l0-60.448 l-54.24,0 l 0.032,60.448zm0-119.424l 54.208,0 l0-315.84 l-54.24,0 l 0.032,315.84zM 1408.16,203.328 m0,0,c 12.224,1.536 20.48,6.688 24.608,15.328 2.336,4.768 3.52,11.552 3.52,20.576 0,18.176-6.464,31.424-19.36,39.68-12.928,8.192-31.392,12.288-55.424,12.288-27.808,0-47.488-7.552-59.2-22.624-6.464-8.352-10.752-20.768-12.672-37.248l-49.76,0 c 0.928,39.232 13.632,66.56 38.016,81.888s 52.64,23.040 84.8,23.040c 37.28,0 67.52-7.104 90.848-21.344 23.104-14.272 34.592-36.384 34.592-66.336l0-182.88 c0-5.504 1.12-9.984 3.392-13.248 2.272-3.36 7.104-5.056 14.4-5.056 2.368,0 4.992,0.192 8,0.448 2.976,0.32 6.112,0.736 9.472,1.312l0-39.36 c-8.288-2.368-14.624-3.872-18.976-4.448-4.32-0.64-10.272-0.864-17.76-0.864-18.368,0-31.744,6.496-40.032,19.552-4.352,6.944-7.392,16.672-9.152,29.312-10.88-14.24-26.496-26.56-46.848-36.992-20.352-10.496-42.752-15.744-67.264-15.744-29.472,0-53.472,8.928-72.16,26.816-18.624,17.824-28,40.192-28,67.008 0,29.376 9.216,52.256 27.552,68.384 18.368,16.192 42.496,26.112 72.288,29.856l 85.152,10.72l-0.032,0 zm-112.32-144.128c 11.232-8.864 24.608-13.248 40-13.248 18.752,0 36.896,4.384 54.528,13.056 29.6,14.368 44.448,37.952 44.448,70.624l0,42.88 c-6.56-4.128-14.944-7.552-25.12-10.304-10.24-2.816-20.352-4.736-30.176-6.016l-32.224-4.064c-19.296-2.56-33.888-6.624-43.552-12.192-16.544-9.184-24.768-23.936-24.768-44.256-0.096-15.488 5.504-27.552 16.8-36.512l 0.064,0 zM 1792.8,82.176 m0,0,c 3.072-1.568 4.64-3.136 1.536-7.744-11.584-17.056-61.984-66.624-119.328-66.624-30.976,0-69.696,24-69.696,76.672 0,108.448 84.448,253.344 180.48,253.344 40.288,0 53.472-29.408 53.472-43.392 0-21.696-17.056-38.72-32.576-38.72-12.384,0-21.664,4.672-26.304,18.592-4.672,10.816-11.616,23.232-24.032,23.232-17.024,0-31.776-18.592-46.432-52.672-19.36-46.496-30.208-94.496-30.208-136.352 0-38.688 11.584-55.808 31.712-55.808 24.8,0 55.008,23.328 64.288,34.048 1.568,3.2 4.672,4.736 6.24,3.2l 10.848-7.776zM 2589.024,113.184 m0,0,l-10.912,7.008c-1.6,0.672-4.672,0.672-6.176-2.432-4.672-6.112-41.92-55.68-58.944-55.68-4.576,0-7.776,4.64-9.248,10.88 0,12.384 15.392,44.864 30.944,89.824 23.264,66.624 42.592,110.752 42.592,133.248 0,17.888-14.784,41.856-42.592,41.856-71.264,0-131.68-97.6-173.536-162.72l-6.176,3.072c 12.352,27.904 41.088,94.528 41.088,123.168 0,18.592-16.256,36.416-42.656,36.416-69.728,0-137.888-103.776-170.4-158.016l-6.176,3.136c 6.176,18.624 49.568,105.344 49.568,127.040 0,17.024-10.080,27.904-33.28,27.904-43.68,0-86.816-36.896-111.328-62.272-14.080,44-54.496,62.272-90.944,62.272-41.792,0-78.976-15.52-109.952-49.6-43.392-47.264-65.056-109.248-65.056-174.24 0-71.328 47.232-106.176 92.928-106.176 46.464,0 82.112,17.056 111.552,51.2 46.4,51.136 66.592,131.616 66.592,181.216 0,1.216-0.128,2.272-0.16,3.456 9.312,11.52 45.6,44.608 54.336,44.608 6.976,0 10.080-4.64 10.080-10.88 0-11.584-21.728-60.416-39.488-108.448l-53.408-144.064c-2.368-6.176 1.536-9.312 6.208-9.312l 48.736,0 c 6.272,0 10.080,1.504 11.648,6.24l 25.568,66.56c 12.448,27.936 24.8,49.568 35.648,65.12 44.928,65.024 105.376,130.112 123.904,130.112 10.080,0 17.056-6.24 16.224-15.488 0-10.848-19.328-62.016-39.488-116.224l-48.832-128.576c-1.472-4.576 1.568-7.68 7.808-7.68l 48.8,0 c 6.176,0 10.080,1.504 11.552,6.176l 24,66.624c 10.88,26.368 24.8,46.496 29.44,54.24 48.032,72.832 110.016,142.496 128.576,142.496 10.848,0 16.256-6.176 16.256-15.424 0-12.448-9.28-38.752-33.344-99.168-29.408-74.368-46.4-122.432-46.4-139.424 0-10.816 9.248-23.264 26.336-23.264 71.264,0 136.352,89.952 139.392,94.496 1.696,6.048 1.696,7.68-1.504,10.752l 0.224,0 l0-0.032 zm-602.688,8.512c-30.208-50.304-58.144-72.064-88.352-72.064-17.024,0-32.512,15.552-32.512,36.512 0,30.944 15.456,77.44 41.024,120.768 38.016,63.52 67.424,90.656 99.136,90.656 22.496,0 33.376-17.792 33.376-34.816 0.096-27.872-23.968-92.192-52.64-141.024l-0.032,0 zM 3832,337.824 m0,0,c-72.736,0-114.656-49.568-114.656-99.136-1.504-32.64 13.152-51.968 28.704-78.272 16.224-27.872 36.416-50.304 34.784-76.672 0-32.576-17.024-49.632-38.656-49.632-14.016,0-20.128,7.808-24.832,20.192-6.176,18.56-18.56,30.944-37.184,30.944-1.856,0-3.616-0.256-5.376-0.576-1.248-0.064-2.496-0.256-3.776-0.864-0.16-0.128-0.512-0.256-0.672-0.384-2.944-1.12-5.664-2.624-8.032-4.64-15.072-9.248-35.008-24.576-43.936-24.576-6.208,0-9.248,4.672-9.248,12.384 0,10.88 10.784,40.256 30.88,91.36 31.744,79.872 41.856,116.256 41.856,136.384 0,21.664-15.456,43.36-44.16,43.36-73.632,0-144.832-97.568-168.064-133.28l-4.704,3.168c 13.984,34.016 36.448,86.752 36.448,103.776 0,10.816-7.008,26.304-29.44,26.304-51.936,0-93.28-31.904-115.84-54.272-16.192,38.24-53.792,54.304-87.872,54.304-41.824,0-79.008-15.52-110.016-49.6-42.016-45.824-63.52-105.536-64.768-168.416-0.704-0.448-1.344-1.056-1.792-1.984-4.672-6.112-41.92-55.68-58.912-55.68-4.64,0-7.808,4.576-9.312,10.816 0,12.384 15.456,44.864 31.008,89.888 23.232,66.592 42.56,110.752 42.56,133.248 0,17.888-14.752,41.824-42.56,41.824-71.296,0-131.68-97.6-173.568-162.688l-6.176,3.072c 12.352,27.936 41.056,94.56 41.056,123.232 0,18.592-16.224,36.416-42.624,36.416-69.728,0-137.856-103.808-170.432-158.016l-6.176,3.136c 6.176,18.624 49.536,105.312 49.536,127.040 0,17.024-10.048,27.872-33.312,27.872-56.576,0-112.32-61.984-127.84-80.576-1.504-3.136 0-4.672 1.568-7.744l 9.28-7.712c 3.040-3.104 6.176-3.104 9.248,0 6.24,9.28 46.528,46.464 55.84,46.464 6.976,0 10.048-4.608 10.048-10.848 0-11.616-21.728-60.416-39.52-108.448l-53.376-144.064c-2.336-6.112 1.536-9.248 6.208-9.248l 48.736,0 c 6.272,0 10.080,1.504 11.68,6.176l 25.504,66.624c 12.448,27.872 24.864,49.504 35.68,65.056 44.928,65.088 105.344,130.144 123.904,130.144 10.080,0 17.024-6.24 16.256-15.488 0-10.848-19.36-62.016-39.488-116.192l-48.8-128.64c-1.536-4.576 1.536-7.68 7.712-7.68l 48.832,0 c 6.176,0 10.048,1.504 11.552,6.176l 24.032,66.624c 10.88,26.368 24.8,46.432 29.408,54.24 48.032,72.864 110.016,142.528 128.608,142.528 10.848,0 16.256-6.208 16.256-15.424 0-12.448-9.28-38.752-33.344-99.2-29.408-74.368-46.432-122.368-46.432-139.424 0-10.88 9.28-23.2 26.304-23.2 52.832,0 102.208,49.376 125.536,76.736 11.040-51.424 51.008-76.736 89.824-76.8 46.496,0 82.144,17.12 111.552,51.2 46.496,51.136 66.656,131.68 66.656,181.248 0,5.568-0.416,10.784-1.088,15.808 14.432,13.664 37.984,33.76 49.888,33.76 6.944,0 11.616-4.64 11.616-12.416 0-10.848-18.624-58.816-35.68-108.448l-52.672-143.264c-1.536-4.64-0.704-10.048 6.208-10.048l 49.6,0 c 7.712,0 9.344,1.504 10.848,4.576l 24.8,71.328c 12.352,31.008 26.336,54.176 41.888,79.008 32.512,52.672 97.6,114.656 120.768,114.656 10.912,0 17.824-6.176 17.824-18.592 0-9.312-21.696-68.128-33.312-100.704-24.768-68.128-46.432-120.8-46.432-134.816 0-13.952 9.248-23.2 26.304-23.2 60.64,0 88.288,34.944 100.96,26.688 9.76-16.256 34.144-26.688 72.48-26.688 69.76,0 117.76,43.36 117.76,103.808 0,35.616-13.984,62.752-29.376,83.68-8.608,11.552-35.712,43.36-35.712,69.696 0,34.112 17.088,44.928 32.64,44.928 12.32,0 15.424-12.352 18.528-21.696 4.672-20.096 17.088-26.336 31.008-26.336 17.024,0 29.408,12.352 29.408,32.576 0.448,32.384-33.696,43.232-60.032,43.232l0-0.096 zm-568.32-216.128c-30.176-50.304-58.080-72.064-88.352-72.064-17.056,0-32.608,15.552-32.608,36.512 0,30.944 15.52,77.44 41.024,120.768 38.016,63.52 67.392,90.656 99.232,90.656 22.432,0 33.28-17.792 33.28-34.816 0.096-27.872-23.776-92.192-52.544-141.024z" horiz-adv-x="3904" data-tags="media-commons-logo" />
<glyph unicode="&#xe003;" d="M 2642.816,109.536 m0,0,c 11.552-54.016 39.488-74.016 94.080-74.016 52.736,0 77.696,27.904 77.696,58.24 0,91.008-201.504,26.72-201.504,150.464 0,52.16 40.64,89.824 110.464,89.824 67.936,0 112.224-27.904 121.344-98.88l-37.056,0 c-6.656,48.512-39.424,66.080-84.96,66.080-46.112,0-70.944-21.824-70.944-53.984 0-85.568 201.376-32.16 201.376-152.928 0-60.064-53.984-91.584-128.032-91.584-73.984,0-116.48,47.328-119.52,106.784l 37.056,0 zM 2327.968,159.936 m0,0,c-0.64-68 35.776-124.416 105.504-124.416 47.328,0 84.352,26.080 95.328,72.192l 40.64,0 c-18.176-59.424-55.808-104.928-135.872-104.928-100.768,0-144.48,71.584-144.48,164.448 0,91.616 54.656,166.816 144.48,166.816 86.112,0 138.88-61.28 138.272-174.112l-243.904,0 l0-0.096 l 0.032,0.096zm 204.992,30.304c0,61.312-33.952,111.008-99.488,111.008-64.288,0-98.272-51.584-105.568-111.008l 205.056,0 zM 2175.072,11.264 m0,0,l-36.416,0 l0,314.272 l 36.416,0 l0-58.848 l 1.216,0 c 20.032,50.368 49.76,67.328 102.496,67.328l0-39.424 c-81.888,1.792-103.712-58.88-103.712-129.216l0-154.112 zM 1907.296,203.328 m0,0,c 12.224,1.568 20.416,6.688 24.608,15.36 2.368,4.736 3.52,11.584 3.52,20.544 0,18.208-6.464,31.424-19.296,39.68-12.96,8.224-31.456,12.352-55.488,12.352-27.744,0-47.488-7.552-59.104-22.656-6.496-8.32-10.784-20.768-12.704-37.216l-49.76,0 c 0.96,39.232 13.664,66.528 38.016,81.824 24.384,15.36 52.64,23.040 84.768,23.040 37.248,0 67.552-7.104 90.816-21.312 23.104-14.208 34.592-36.352 34.592-66.4l0-182.752 c0-5.504 1.152-9.984 3.456-13.312 2.272-3.328 7.008-4.992 14.336-4.992 2.4,0 5.024,0.16 8.032,0.448 2.912,0.256 6.112,0.704 9.472,1.28l0-39.36 c-8.352-2.368-14.656-3.872-19.008-4.48s-10.272-0.864-17.76-0.864c-18.368,0-31.712,6.496-40.032,19.552-4.32,6.912-7.36,16.672-9.152,29.312-10.88-14.208-26.464-26.56-46.816-36.992-20.32-10.464-42.752-15.712-67.232-15.712-29.408,0-53.44,8.896-72.096,26.784-18.656,17.856-28,40.16-28,67.008 0,29.376 9.184,52.192 27.552,68.352 18.336,16.16 42.432,26.112 72.256,29.888l 85.12,10.592l-0.16,0 l 0.064,0.032zm-112.288-144.096c 11.232-8.864 24.576-13.248 40-13.248 18.752,0 36.928,4.288 54.464,12.992 29.664,14.368 44.48,37.984 44.48,70.656l0,42.912 c-6.496-4.16-14.88-7.616-25.12-10.4-10.24-2.752-20.288-4.736-30.144-5.984l-32.256-4.128c-19.296-2.56-33.856-6.592-43.552-12.128-16.512-9.248-24.736-24.032-24.736-44.32-0.032-15.36 5.568-27.52 16.864-36.352zM 1620.064,448 m0,0,l 54.176,0 l0-62.016 l-54.176,0 l0,62.016 zm0-120.992l 54.176,0 l0-315.744 l-54.176,0 l0,315.744 zM 1481.28,318.752 m0,0,c 9.44-5.92 20.192-16.256 32.16-31.072l0,160.224 l 51.232,0 l0-436.64 l-47.968,0 l0,44.096 c-12.416-19.52-27.040-33.664-44-42.336-16.896-8.672-36.288-13.024-58.112-13.024-35.232,0-65.696,14.88-91.456,44.576-25.728,29.728-38.656,69.248-38.656,118.656 0,46.176 11.744,86.208 35.232,120.128 23.52,33.856 57.12,50.784 100.736,50.784 24.128,0.064 44.448-5.024 60.768-15.328l 0.064-0.064zm-119.040-237.856c 14.336-22.912 37.312-34.336 68.96-34.336 24.576,0 44.736,10.592 60.576,31.808 15.808,21.248 23.744,51.712 23.744,91.392 0,40.064-8.16,69.76-24.48,89.024s-36.448,28.896-60.448,28.896c-26.72,0-48.384-10.272-64.96-30.88-16.64-20.48-24.96-50.688-24.96-90.624 0-33.952 7.264-62.368 21.568-85.28zM 1165.472,319.808 m0,0,c 20.992-10.592 36.992-24.256 48-41.024 10.592-16 17.664-34.688 21.184-56 3.168-14.592 4.704-37.888 4.704-69.888l-230.72,0 c 0.992-32.288 8.544-58.176 22.656-77.728 14.080-19.456 35.968-29.184 65.536-29.184 27.616,0 49.664,9.184 66.112,27.616 9.216,10.688 15.744,23.104 19.584,37.216l 52.448,0 c-1.408-11.648-6.016-24.64-13.792-38.976-7.808-14.304-16.48-25.984-26.080-35.072-16.064-15.808-36-26.496-59.68-32.032-12.768-3.136-27.168-4.672-43.232-4.672-39.264,0-72.512,14.304-99.808,43.072-27.264,28.704-40.896,68.96-40.896,120.704 0,50.944 13.728,92.288 41.216,124.128 27.488,31.776 63.392,47.648 107.744,47.648 22.304,0.096 44-5.184 64.992-15.744l 0.032-0.064zm 19.168-124.576c-2.144,23.136-7.136,41.6-14.976,55.424-14.496,25.632-38.656,38.464-72.544,38.464-24.288,0-44.64-8.832-61.088-26.496-16.448-17.696-25.152-40.16-26.144-67.392l 174.752,0 zM 476.32,328.48 m0,0,l 52.704,0 l0-45.024 c 12.64,15.616 24.064,26.976 34.368,34.048 17.568,12.032 37.504,18.112 59.808,18.112 25.28,0 45.632-6.24 61.024-18.688 8.672-7.072 16.608-17.536 23.68-31.392 11.84,16.96 25.76,29.568 41.792,37.76 16,8.192 33.984,12.32 53.952,12.32 42.624,0 71.68-15.424 87.072-46.24 8.288-16.576 12.448-38.912 12.448-66.912l0-211.2 l-55.36,0 l0,220.352 c0,21.12-5.312,35.616-15.872,43.552-10.56,7.904-23.424,11.84-38.656,11.84-20.928,0-38.944-7.008-54.048-21.056-15.104-14.016-22.656-37.408-22.656-70.176l0-184.576 l-54.272,0 l0,207.072 c0,21.504-2.592,37.216-7.712,47.104-8.096,14.784-23.2,22.208-45.312,22.208-20.128,0-38.464-7.776-54.944-23.392-16.48-15.552-24.736-43.872-24.736-84.704l0-168.256 l-53.312,0 l0,317.248 l 0.032,0 zM 147.872,11.264 m0,0,l-36.448,0 l0,314.272 l 36.448,0 l0-43.68 c 29.12,30.944 57.6,52.16 101.312,52.16 38.208,0 73.408-12.16 95.872-44.896 15.168-22.464 15.744-46.112 15.744-72.192l0-205.696 l-36.384,0 l0,205.056 c0,56.416-23.072,84.928-81.312,84.928-44.896,0-75.84-29.12-87.36-61.312-7.296-19.936-7.904-37.536-7.904-59.424l 0.032-169.216zM 32,368.832 m0,0,l0,46.080 l 40.032,0 l0-46.080 l-40.032,0 zm 1.792-357.568l0,314.272 l 36.416,0 l0-314.272 l-36.416,0 z" horiz-adv-x="2880" data-tags="in-media-res-logo" />
<glyph unicode="&#xe004;" d="M 499.296,88.672 m0,0,c-10.88,0-19.584,3.072-25.984,9.184-6.464,6.112-9.664,16.128-9.664,30.016-11.584-13.888-25.056-23.872-40.416-30.016-15.328-6.112-31.936-9.184-49.824-9.184-11.552,0-22.464,1.248-32.672,3.744-10.24,2.496-19.264,6.624-27.008,12.384-7.744,5.824-13.856,13.248-18.336,22.304-4.48,9.12-6.688,20.096-6.688,32.928 0,14.56 2.464,26.432 7.424,35.712 4.96,9.216 11.456,16.704 19.584,22.528 8.064,5.824 17.344,10.176 27.744,13.12 10.432,2.944 21.088,5.472 31.968,7.424 11.552,2.304 22.56,4.032 32.96,5.184 10.4,1.184 19.552,2.784 27.52,4.928 7.936,2.144 14.208,5.312 18.816,9.44 4.64,4.128 6.944,10.144 6.944,18.080 0,9.28-1.728,16.672-5.216,22.304-3.456,5.6-7.936,9.92-13.376,12.896s-11.552,4.928-18.336,5.952c-6.752,0.96-13.472,1.472-20.064,1.472-17.824,0-32.672-3.36-44.608-10.144-11.904-6.784-18.336-19.584-19.328-38.4l-42.144,0 c 0.672,15.872 3.968,29.248 9.92,40.16 5.952,10.88 13.888,19.712 23.808,26.496 9.952,6.784 21.312,11.648 34.208,14.656 12.864,2.976 26.432,4.448 40.64,4.448 11.552,0 23.072-0.8 34.464-2.464s 21.696-5.024 30.944-10.176c 9.248-5.12 16.672-12.32 22.304-21.536 5.6-9.28 8.416-21.312 8.416-36.192l0-131.808 c0-9.984 0.576-17.184 1.728-21.824 1.152-4.672 5.056-6.976 11.648-6.976 3.648,0 7.936,0.832 12.896,2.528l0-32.704 c-7.296-4.16-17.344-6.272-30.24-6.272l-0.032-0.192zm-58.976,129.152c-8.576-1.824-17.568-3.328-26.976-4.512-9.408-1.12-18.944-2.432-28.512-3.936-9.568-1.44-18.176-3.872-25.76-7.136-7.584-3.36-13.792-8.064-18.592-14.112-4.768-6.176-7.168-14.496-7.168-25.056 0-6.944 1.376-12.768 4.192-17.6 2.816-4.8 6.464-8.672 10.912-11.648 4.448-2.944 9.728-5.12 15.84-6.432s 12.32-1.984 18.592-1.984c 13.888,0 25.792,1.952 35.68,5.696 9.952,3.872 18.016,8.64 24.288,14.4 6.24,5.728 10.88,12.032 13.888,18.816 2.944,6.784 4.416,13.12 4.416,19.104l0,43.008 c-5.28-3.968-12.192-6.88-20.8-8.672l0,0.064 zM 593.44,448 m0,0,l0-353.792 l-42.112,0 l0,353.792 l 42.112,0 zM 758.432,350.368 m0,0,l0-37.152 l-51.040,0 l0-159.040 c0-4.992 0.448-8.928 1.28-11.936 0.8-2.944 2.4-5.248 4.672-6.944 2.336-1.664 5.536-2.688 9.664-3.264 4.128-0.448 9.504-0.672 16.096-0.672l 19.328,0 l0-37.184 l-32.192,0 c-10.912,0-20.224,0.736-28,2.24-7.744,1.44-14.016,4.192-18.816,8.128-4.8,4-8.32,9.632-10.656,16.864-2.304,7.328-3.456,16.864-3.456,28.736l0,163.040 l-43.616,0 l0,37.152 l 43.616,0 l0,76.8 l 42.112,0 l0-76.8 l 51.168,0 l-0.16,0.032zM 911.584,251.744 m0,0,l0-39.68 l-143.2,0 l0,39.68 l 143.2,0 zM 32,196.224 m0,0,l0,33.728 l 53.024,0 l 10.4,74.336l-50.528,0 l0,33.696 l 55.008,0 l 14.336,101.6l 34.24,0 l-14.4-101.6l 61.44,0 l 14.4,101.6l 34.176,0 l-14.368-101.6l 44.096,0 l0-33.696 l-48.544,0 l-10.4-74.336l 45.088,0 l0-33.728 l-50.016,0 l-14.4-102.016l-34.176,0 l 14.368,102.016l-61.44,0 l-14.368-102.016l-34.208,0 l 14.336,102.016l-48.064,0 zm 87.232,33.696l 61.44,0 l 10.432,74.336l-61.44,0 l-10.432-74.336zM 1337.76,305.728 m0,0,c-10.592,8.928-24.768,13.376-42.624,13.376-15.2,0-27.936-2.816-38.144-8.384-10.24-5.632-18.464-13.088-24.544-22.304-6.112-9.28-10.496-19.904-13.152-32-2.656-12.064-3.968-24.512-3.968-37.44 0-11.84 1.408-23.424 4.224-34.624 2.816-11.264 7.2-21.312 13.152-30.016 5.952-8.8 13.696-15.808 23.296-21.056 9.568-5.312 20.96-7.936 34.176-7.936 20.832,0 37.088,5.44 48.8,16.384 11.744,10.88 18.912,26.24 21.568,46.048l 43.104,0 c-4.608-31.744-16.448-56.192-35.424-73.376-19.040-17.12-44.864-25.76-77.568-25.76-19.488,0-36.768,3.2-51.776,9.44-15.040,6.24-27.616,15.2-37.696,26.784-10.080,11.52-17.664,25.344-22.816,41.344-5.12,16-7.68,33.632-7.68,52.8s 2.496,37.088 7.424,53.76c 4.96,16.672 12.48,31.2 22.528,43.616 10.080,12.384 22.72,22.112 37.952,29.248 15.2,7.072 32.864,10.624 53.024,10.624 14.528,0 28.16-1.728 40.864-5.184s 23.936-8.864 33.696-16.096c 9.728-7.296 17.792-16.448 24.032-27.552 6.272-11.072 10.24-24.16 11.904-39.392l-43.616,0 c-3.328,16.256-10.304,28.864-20.896,37.76l 0.16-0.064zM 1135.104,88.672 m0,0,c-10.88,0-19.552,3.072-25.984,9.184s-9.664,16.128-9.664,30.016c-11.552-13.888-25.024-23.872-40.384-30.016s-31.968-9.184-49.792-9.184c-11.584,0-22.496,1.248-32.704,3.744-10.24,2.496-19.264,6.624-26.976,12.384-7.776,5.824-13.888,13.248-18.368,22.304-4.448,9.12-6.688,20.096-6.688,32.928 0,14.56 2.496,26.432 7.424,35.712 4.928,9.216 11.488,16.704 19.584,22.528s 17.344,10.176 27.744,13.12c 10.4,2.944 21.056,5.472 31.968,7.424 11.552,2.304 22.528,4.032 32.928,5.184 10.4,1.184 19.552,2.784 27.488,4.928s 14.208,5.312 18.816,9.44c 4.64,4.128 6.912,10.144 6.912,18.080 0,9.28-1.728,16.672-5.216,22.304-3.456,5.6-7.936,9.92-13.376,12.896s-11.552,4.928-18.336,5.952c-6.784,0.96-13.44,1.472-20.064,1.472-17.856,0-32.704-3.36-44.608-10.144-11.936-6.784-18.336-19.584-19.36-38.4l-42.048,0 c 0.672,15.872 3.968,29.248 9.888,40.16 5.952,10.912 13.888,19.712 23.84,26.496 9.888,6.784 21.28,11.648 34.144,14.656s 26.464,4.448 40.672,4.448c 11.552,0 23.008-0.8 34.432-2.464 11.392-1.664 21.728-5.024 30.976-10.176 9.248-5.12 16.672-12.32 22.304-21.536 5.6-9.28 8.416-21.312 8.416-36.192l0-131.808 c0-9.984 0.576-17.184 1.728-21.824 1.184-4.672 5.056-6.976 11.68-6.976 3.616,0 7.936,0.832 12.864,2.528l0-32.704 c-7.264-4.352-17.344-6.464-30.176-6.464l-0.064,0 zm-59.008,129.152c-8.608-1.824-17.6-3.328-27.008-4.512-9.408-1.12-18.912-2.432-28.48-3.936-9.568-1.44-18.176-3.872-25.76-7.136-7.648-3.36-13.792-8.064-18.592-14.112-4.8-6.176-7.2-14.496-7.2-25.056 0-6.944 1.408-12.768 4.224-17.6s 6.464-8.672 10.912-11.648c 4.48-2.944 9.76-5.12 15.872-6.432s 12.32-1.984 18.592-1.984c 13.856,0 25.76,1.952 35.68,5.696 9.888,3.872 17.984,8.64 24.288,14.4 6.24,5.728 10.88,12.032 13.856,18.816 3.008,6.784 4.448,13.12 4.448,19.104l0,43.008 c-5.216-3.968-12.16-6.88-20.8-8.672l0,0.064 zM 1445.248,310.208 m0,0,c 5.28,10.912 12.48,19.808 21.568,26.784 9.056,6.912 19.744,12.032 31.968,15.328s 25.76,4.96 40.64,4.96c 11.232,0 22.464-1.088 33.696-3.232 11.2-2.144 21.28-6.176 30.208-12.128s 16.192-14.304 21.792-25.056c 5.6-10.72 8.448-24.704 8.448-41.856l0-135.744 c0-12.608 6.112-18.88 18.336-18.88 3.616,0 6.944,0.672 9.888,1.984l0-26.304 c-3.584-0.64-6.816-1.12-9.632-1.44-2.816-0.352-6.336-0.448-10.656-0.448-7.936,0-14.304,0.992-19.072,3.2-4.8,2.144-8.512,5.216-11.168,9.152-2.656,3.968-4.384,8.704-5.216,14.080-0.8,5.504-1.216,11.488-1.216,18.112l-0.992,0 c-5.6-8.256-11.296-15.584-17.088-22.048-5.792-6.432-12.224-11.808-19.328-16.128-7.104-4.256-15.232-7.552-24.288-9.888-9.088-2.304-19.904-3.424-32.448-3.424-11.872,0-23.040,1.376-33.472,4.192-10.368,2.816-19.488,7.264-27.264,13.376s-13.888,13.952-18.336,23.264c-4.48,9.504-6.688,20.64-6.688,33.504 0,17.824 3.968,31.744 11.904,41.888 7.968,10.048 18.432,17.76 31.456,23.008 13.056,5.312 27.744,9.056 44.096,11.2 16.352,2.176 32.96,4.224 49.824,6.208 6.624,0.672 12.384,1.472 17.344,2.496 4.96,0.992 9.088,2.72 12.384,5.184s 5.856,5.856 7.712,10.176c 1.792,4.256 2.688,9.888 2.688,16.864 0,10.528-1.728,19.232-5.184,25.984-3.456,6.784-8.256,12.128-14.368,16.096s-13.216,6.688-21.312,8.16c-8.096,1.504-16.768,2.24-26.016,2.24-19.84,0-36-4.736-48.576-14.144-12.576-9.376-19.136-24.512-19.808-45.344l-31.232,0 c 1.152,14.912 4.352,27.776 9.568,38.656l0-0.064 l-0.16,0.032zm 156.128-76.352c-1.984-3.584-5.824-6.272-11.424-7.904-5.6-1.696-10.56-2.816-14.848-3.456-13.248-2.336-26.848-4.384-40.864-6.144-14.016-1.888-26.848-4.64-38.432-8.256-11.552-3.552-21.024-8.8-28.48-15.552-7.424-6.784-11.168-16.448-11.168-28.992 0-7.936 1.536-14.976 4.704-21.056 3.136-6.112 7.328-11.392 12.64-15.808 5.28-4.512 11.392-7.872 18.336-10.176 6.944-2.368 14.016-3.488 21.312-3.488 11.904,0 23.328,1.888 34.208,5.44 10.912,3.68 20.384,8.928 28.48,15.872s 14.56,15.36 19.328,25.312 7.168,21.12 7.168,33.696l0,40.64 l-0.96-0.128zM 1872.48,94.176 m0,0,l0,48.576 l-0.992,0 c-3.328-8.256-8.192-15.872-14.656-22.816s-13.792-12.8-22.016-17.568c-8.288-4.8-17.12-8.544-26.528-11.2-9.408-2.624-18.752-3.936-28-3.936-19.456,0-36.448,3.52-50.816,10.624-14.304,7.136-26.336,16.864-35.904,29.216-9.6,12.416-16.672,26.784-21.312,43.168-4.608,16.352-6.944,33.568-6.944,51.776 0,18.144 2.336,35.424 6.944,51.776 4.64,16.352 11.712,30.72 21.312,43.104 9.568,12.416 21.6,22.24 35.904,29.472 14.368,7.264 31.328,10.912 50.816,10.912 9.6,0 18.912-1.184 28-3.488 9.056-2.336 17.6-5.856 25.536-10.656 7.936-4.768 14.944-10.656 21.024-17.568 6.112-6.976 10.848-15.072 14.112-24.288l 0.992,0 l0,146.72 l 31.232,0 l0-353.824 l-28.832,0 l0-0.192 l 0.128,0.192zm-171.232,88.448c 3.136-13.056 8.064-24.672 14.848-34.944s 15.456-18.56 25.984-24.992c 10.56-6.496 23.328-9.696 38.176-9.696 16.512,0 30.464,3.2 41.888,9.696 11.36,6.432 20.64,14.752 27.744,24.992s 12.192,21.888 15.328,34.944 4.704,26.176 4.704,39.392c0,13.152-1.6,26.336-4.704,39.36-3.168,13.088-8.256,24.736-15.328,34.944-7.136,10.24-16.384,18.56-27.744,25.056-11.392,6.432-25.376,9.632-41.888,9.632-14.88,0-27.584-3.232-38.176-9.632-10.528-6.496-19.264-14.784-25.984-25.056-6.784-10.24-11.712-21.92-14.848-34.944s-4.672-26.208-4.672-39.36c-0.032-13.216 1.472-26.4 4.672-39.392zM 1963.872,178.624 m0,0,c 3.168-12.128 8.192-22.88 15.136-32.448 6.976-9.632 15.68-17.504 26.272-23.872 10.56-6.24 23.264-9.376 38.112-9.376 22.816,0 40.672,5.952 53.536,17.824 12.896,11.936 21.792,27.808 26.784,47.552l 31.232,0 c-6.592-29.056-18.784-51.488-36.416-67.36-17.76-15.808-42.752-23.744-75.136-23.744-20.128,0-37.6,3.552-52.256,10.592-14.72,7.104-26.688,16.896-35.936,29.28s-16.096,26.72-20.576,43.072c-4.48,16.384-6.72,33.632-6.72,51.808 0,16.864 2.24,33.376 6.72,49.568s 11.328,30.656 20.576,43.36 21.216,22.944 35.936,30.72c 14.656,7.776 32.128,11.648 52.256,11.648 20.512,0 38.016-4.128 52.512-12.384 14.56-8.288 26.368-19.072 35.424-32.48 9.152-13.408 15.648-28.768 19.616-46.080 3.968-17.344 5.632-34.976 4.928-52.8l-196.64,0 c0-11.264 1.568-22.88 4.672-34.944l-0.032,0.064zm 154.656,95.392c-3.808,10.88-9.152,20.576-16.064,28.992-7.008,8.416-15.36,15.168-25.344,20.32-9.92,5.088-21.12,7.68-33.728,7.68-12.8,0-24.256-2.592-34.112-7.68-9.952-5.12-18.4-11.872-25.28-20.288-6.976-8.448-12.512-18.144-16.64-29.248-4.128-11.072-6.816-22.4-8.128-33.92l 165.504,0 c-0.448,11.936-2.528,23.36-6.304,34.272l 0.128,0 l0-0.128 zM 2216.896,349.888 m0,0,l0-43.136 l 1.504,0 c 8.256,15.84 19.072,28.256 32.416,37.152 13.408,8.928 30.496,13.408 51.296,13.408 16.864,0 32.16-4.128 45.824-12.416 13.76-8.256 22.912-20.8 27.552-37.664 7.584,16.832 18.816,29.408 33.696,37.664 14.88,8.288 30.752,12.416 47.584,12.416 56.544,0 84.704-29.92 84.704-89.696l0-173.44 l-31.264,0 l0,171.936 c0,21.152-4.416,37.248-13.376,48.352-8.928,11.072-24.64,16.608-47.072,16.608-13.568,0-24.8-2.592-33.696-7.68-8.928-5.152-16.064-11.968-21.344-20.576s-8.96-18.432-11.136-29.472c-2.112-11.104-3.264-22.56-3.264-34.432l0-144.672 l-31.168,0 l0,173.28 c0,8.608-0.928,16.736-2.752,24.512s-4.8,14.56-8.928,20.352-9.696,10.336-16.608,13.632c-6.944,3.328-15.36,4.928-25.28,4.928-13.216,0-24.736-2.4-34.432-7.168-9.76-4.8-17.696-11.392-23.808-19.808-6.112-8.448-10.656-18.368-13.632-29.76-3.008-11.392-4.512-23.872-4.512-37.376l0-142.752 l-31.2,0 l0,255.552 l 28.672,0 l0,0.128 l 0.224,0.128zM 2585.536,349.888 m0,0,l 84.288-218.048 78.784,218.048l 31.2,0 l-111.008-294.368c-4.576-10.88-8.928-19.872-12.864-27.008s-8.32-12.736-13.12-16.864-10.432-7.072-16.864-8.864c-6.496-1.92-14.656-2.784-24.544-2.784-6.304,0.32-11.136,0.576-14.624,0.736-3.488,0.128-6.56,0.736-9.184,1.696l0,26.24 c 3.616-0.64 7.2-1.184 10.624-1.696 3.488-0.512 7.072-0.736 10.688-0.736 6.944,0 12.64,0.992 17.12,3.008 4.448,1.984 8.384,4.672 11.616,8.16 3.328,3.456 6.112,7.712 8.448,12.672s 4.768,10.432 7.392,16.32l 10.912,28.768-102.112,254.72l 33.248,0 z" horiz-adv-x="2816" data-tags="alt-academy-logo" />
<glyph unicode="&#xe008;" d="M 474.592,85.504c-0.992,2.048-1.92,3.936-2.56,5.568c-7.712,18.112-102.304,45.92-110.112,46.368
	c-1.984,0.128-4.128-0.064-6.304-0.512c-12.896-2.624-27.072-14.848-56.928-41.248c-33.632,15.488-79.616,56.992-101.312,81.44
	C 173.888,203.584, 144.608,248.096, 134.048,281.344c 33.984,30.144, 48.192,43.232, 49.088,57.792c 0.48,7.84-15.744,105.024-32.832,114.88
	C 148.8,454.88, 147.072,456, 145.184,457.248C 134.304,464.256, 117.856,474.848, 99.584,471.136C 95.136,470.208, 90.848,468.48, 86.816,465.984
	C 74.56,458.24, 44.544,437.408, 30.848,410.176c-8.448-16.96-12.288-171.712, 103.68-302.496c 114.624-129.344, 255.936-134.976, 277.184-130.624l 0.576,0.128
	l 1.888,0.544c 28.672,10.272, 52.96,37.6, 62.112,48.864C 493.088,47.424, 481.088,72.192, 474.592,85.504z" data-tags="contact-phone" />
<glyph unicode="&#xe01d;" d="M 352.032,191.968L 160,192L 255.968,32 zM 160,256L 352.032,256L 256.064,416 z" data-tags="triangles-expand" />
<glyph unicode="&#xe006;" d="M 256.064,181.376l 228.448,201.728C 482.976,383.328, 481.6,384, 480,384L 32,384 C 31.008,384, 30.176,383.52, 29.216,383.424L 256.064,181.376
		zM 512,352c0,3.808-0.928,7.328-2.176,10.72l-161.312-142.432l 159.264-139.328C 510.208,85.504, 512,90.464, 512,96L 512,352 zM 2.496,364.384C 0.896,360.576,0,356.384,0,352l0-256 c0-4.672, 1.12-9.024, 2.912-13.024L 163.68,220.8L 2.496,364.384zM 324.32,198.976l-68.384-60.352l-68.16,60.704l-157.472-134.976C 30.88,64.32, 31.392,64, 32,64l 446.56,0 
		L 324.32,198.976z" data-tags="contact-mail" />
<glyph unicode="&#xe01e;" d="M 441.088,128.672L 441.088,192.672L 377.088,192.672L 377.088,128.672L 313.088,128.672L 313.088,64.672L 377.088,64.672L 377.088,0.672L 441.088,0.672L 441.088,64.672L 505.088,64.672L 505.088,128.672 	zM 262.912,32.672l0,128 l 32,0 l0,32 l 23.744,0 l-0.32,31.36c0,0, 18.624,14.304, 24.384,59.2
		c 11.68-3.36, 23.872,17.376, 24.576,28.32c 0.64,10.528-1.632,39.744-15.808,36.8c 2.88,22.016, 4.992,41.792, 4,52.256
		c-3.744,38.304-41.44,78.72-99.424,78.72s-95.744-40.416-99.424-78.72C 155.584,390.144, 157.696,370.368, 160.576,348.352
		c-14.208,2.944-16.448-26.272-15.808-36.8c 0.672-10.944, 12.864-31.68, 24.544-28.32c 5.76-44.864, 24.416-59.2, 24.416-59.2l-0.48-47.68
		c0,0-11.808-7.2-61.504-27.936c-49.728-20.672-99.936-35.2-114.88-58.496c-13.408-20.864-9.376-121.248-9.376-121.248l 248.544,0 l 70.88,0 l0,32 l0,32 L 313.088,32.672 
		L 262.912,32.672 z" data-tags="contacts-user-add" />
<glyph unicode="&#xe01f;" d="M 495.168,89.952c-14.944,23.328-65.152,37.824-114.88,58.496c-49.696,20.736-61.504,27.936-61.504,27.936
	l-0.448,47.68c0,0, 18.624,14.304, 24.384,59.2c 11.648-3.36, 23.872,17.376, 24.576,28.32c 0.64,10.528-1.632,39.744-15.808,36.8
	c 2.88,22.016, 4.992,41.792, 3.968,52.256C 351.712,438.912, 314.016,479.328, 256,479.328c-57.984,0-95.712-40.416-99.392-78.72
	C 155.552,390.144, 157.664,370.368, 160.576,348.352c-14.208,2.944-16.48-26.272-15.808-36.8c 0.672-10.944, 12.864-31.68, 24.544-28.32
	c 5.792-44.864, 24.416-59.2, 24.416-59.2l-0.48-47.68c0,0-11.776-7.2-61.504-27.936c-49.728-20.672-99.936-35.2-114.88-58.496
	c-13.408-20.864-9.376-121.248-9.376-121.248L 256-31.328 l 248.544,0 C 504.544-31.328, 508.608,69.056, 495.168,89.952z" data-tags="contacts-user" />
<glyph unicode="&#xe020;" d="M 263.808,180.928C 228.672,195.552, 220.384,200.672, 220.384,200.672L 220.032,234.336c0,0, 13.152,10.112, 17.28,41.824
		c 8.192-2.368, 16.832,12.288, 17.312,20c 0.448,7.392-1.152,28.064-11.2,25.984C 245.472,337.728, 246.944,351.68, 246.24,359.104
		C 243.648,386.144, 216.992,414.688, 176,414.688c-40.928,0-67.616-28.544-70.24-55.584C 105.056,351.68, 106.528,337.728, 108.608,322.144
		c-10.048,2.048-11.648-18.592-11.2-25.984C 97.888,288.448, 106.496,273.792, 114.752,276.16c 4.064-31.68, 17.248-41.824, 17.248-41.824L 131.648,200.672
		c0,0-8.352-5.088-43.392-19.712c-35.2-14.624-70.656-24.864-81.184-41.344c-9.504-14.72-6.656-106.272-6.656-106.272L 176,33.344 l 175.616,0 
		c0,0, 2.816,91.552-6.656,106.272C 334.432,156.064, 298.944,166.304, 263.808,180.928zM 505.664,128.8c-9.472,14.752-9.344,23.968-40.896,37.12S 425.696,183.68, 425.696,183.68l-0.256,30.208
		c0,0, 11.808,9.088, 15.488,37.6c 7.36-2.144, 15.136,11.040, 15.552,17.952c 0.384,6.688-1.024,25.216-10.048,23.36
		c 1.824,13.984, 3.2,26.528, 2.56,33.184c-2.336,24.32-26.304,49.952-63.136,49.952s-60.736-25.632-63.136-49.952
		c-0.64-6.656, 0.672-19.232, 2.56-33.184C 316.256,294.656, 314.816,276.128, 315.264,269.44c 0.448-6.912, 8.192-20.096, 15.552-17.952
		c 3.68-28.512, 15.52-37.6, 15.52-37.6l-10.4-8.128c 29.536-14.016, 61.792-33.792, 61.792-53.6c0-20.384,0-74.688,0-118.88l 113.92,0 
		C 511.616,33.312, 514.176,115.552, 505.664,128.8z" data-tags="contacts-users" />
<glyph unicode="&#x20;" horiz-adv-x="256" />
</font>
</defs>
</svg>
